{"glyphs":{"0":{"ha":425,"x_min":-31,"x_max":424,"o":"m 294 713 q 392 585 363 669 q 408 390 422 501 q 358 212 396 300 q 257 55 319 124 q 122 -35 194 -14 q 93 -39 107 -39 q 42 -18 63 -39 q 64 354 -29 56 q 122 514 88 429 q 208 686 156 599 q 300 781 260 774 q 321 776 311 783 q 333 758 331 769 q 333 747 335 753 q 329 737 332 742 q 322 729 326 732 q 311 725 317 726 q 294 713 304 724 m 351 397 q 340 563 364 493 q 261 667 317 633 q 172 485 218 599 q 96 254 125 372 q 72 134 78 186 q 70 56 67 82 q 83 22 74 31 q 107 21 90 15 q 262 155 190 44 q 351 397 333 265 z "},"1":{"ha":267,"x_min":29,"x_max":268,"o":"m 236 782 q 262 751 256 774 q 259 663 268 728 q 227 501 250 599 q 158 231 204 404 q 130 120 140 158 q 107 30 119 82 q 88 -57 94 -22 q 60 -79 83 -79 q 54 -78 57 -79 q 35 -66 42 -76 q 32 -44 29 -56 q 103 244 47 31 q 207 711 203 629 q 119 578 175 672 q 102 564 114 567 q 80 567 90 561 q 67 585 69 574 q 69 607 64 596 q 174 759 139 725 q 236 782 208 793 z "},"2":{"ha":351,"x_min":-7,"x_max":349,"o":"m 185 290 q 128 187 147 222 q 88 102 110 151 q 61 19 67 53 q 60 7 60 13 q 60 1 60 1 q 154 42 82 -4 q 263 138 226 89 q 281 149 269 147 q 303 144 293 151 q 314 126 313 138 q 308 104 315 114 q 194 -1 272 53 q 63 -56 115 -56 q 36 -51 47 -56 q 4 29 -7 -32 q 33 121 11 68 q 76 210 56 174 q 135 318 96 247 q 200 438 178 394 q 248 542 222 481 q 281 650 274 604 q 276 682 285 678 q 233 678 267 689 q 164 640 200 667 q 142 635 154 633 q 124 647 131 638 q 119 667 117 656 q 131 686 121 679 q 147 699 138 692 q 179 717 157 706 q 222 735 201 728 q 265 742 242 742 q 307 732 289 742 q 338 640 347 707 q 303 525 329 592 q 253 415 276 458 q 185 290 229 371 z "},"3":{"ha":400,"x_min":-49,"x_max":365,"o":"m 356 322 q 347 214 364 269 q 288 105 329 158 q 169 7 246 51 q -10 -62 92 -37 q -17 -64 -14 -64 q -44 -42 -39 -64 q -41 -20 -47 -31 q -24 -7 -35 -10 q 133 53 65 15 q 238 134 200 90 q 290 224 275 178 q 299 313 306 269 q 241 407 289 374 q 122 435 193 440 q 94 453 101 433 q 103 486 86 472 q 193 562 156 526 q 247 618 231 597 q 272 655 264 639 q 281 676 281 671 q 282 682 282 681 q 231 678 271 692 q 178 648 201 668 q 153 603 156 628 q 141 584 150 592 q 120 578 132 576 q 101 590 108 581 q 96 611 94 599 q 149 697 103 661 q 247 740 194 733 q 335 704 315 749 q 194 488 364 632 q 303 430 260 474 q 356 322 346 386 z "},"4":{"ha":397,"x_min":26,"x_max":389,"o":"m 371 482 q 383 440 389 464 q 331 308 376 417 q 221 -10 222 50 q 217 -24 221 -18 q 206 -34 213 -31 q 193 -37 200 -37 l 192 -37 q 172 -29 181 -37 q 164 -8 164 -21 q 278 331 165 63 q 286 349 283 343 q 250 314 267 329 q 65 203 117 189 q 32 268 26 214 q 120 521 40 363 q 271 739 200 679 q 292 746 281 747 q 312 735 304 744 q 319 715 319 726 q 308 696 318 703 q 171 494 246 643 q 89 263 96 346 q 89 261 89 261 q 141 295 107 269 q 226 369 175 321 q 324 469 278 417 q 325 472 325 471 q 371 482 349 496 z "},"5":{"ha":415,"x_min":-75,"x_max":500,"o":"m 471 688 q 490 679 482 688 q 499 659 499 671 q 490 639 499 647 q 471 631 482 631 q 301 661 411 631 q 221 682 249 676 q 176 539 203 639 q 143 386 150 439 q 315 358 269 413 q 317 221 358 308 q 167 50 274 126 q -46 -26 61 -26 q -65 -18 -57 -26 q -74 2 -74 -10 q -65 22 -74 14 q -46 31 -57 31 q 136 97 44 31 q 265 244 228 164 q 272 322 290 300 q 124 322 243 356 q 90 333 103 317 q 83 351 85 342 q 89 407 82 361 q 115 532 96 453 q 182 731 157 694 q 211 743 193 746 q 317 717 249 736 q 471 688 418 688 z "},"6":{"ha":436,"x_min":18,"x_max":410,"o":"m 360 279 q 403 200 399 254 q 367 63 408 146 q 344 28 357 46 q 300 -11 331 11 q 238 -37 269 -33 q 224 -39 231 -39 q 129 7 172 -39 q 46 332 19 122 q 87 497 56 414 q 163 643 118 581 q 251 726 206 703 q 335 732 296 750 q 350 717 346 728 q 349 694 354 706 q 332 679 343 683 q 311 681 321 675 q 265 669 293 689 q 208 610 238 650 q 140 476 169 553 q 103 325 111 400 q 135 97 85 188 q 190 219 153 169 q 251 276 218 257 q 310 294 283 296 q 360 279 338 292 m 317 90 q 340 140 332 117 q 347 182 347 164 q 343 213 347 200 q 329 232 339 225 q 287 231 313 242 q 236 186 261 219 q 181 38 194 129 q 231 19 204 17 q 278 43 256 22 q 317 90 301 64 z "},"7":{"ha":400,"x_min":29,"x_max":428,"o":"m 414 440 q 419 437 414 440 q 426 422 424 433 q 421 401 428 411 q 401 390 414 392 q 281 360 372 385 q 260 297 272 333 q 215 167 231 213 q 185 65 200 122 q 171 -21 171 7 q 163 -42 171 -33 q 142 -50 154 -50 q 122 -42 131 -50 q 114 -21 114 -33 q 128 71 114 11 q 158 178 143 131 q 206 315 174 225 q 210 328 207 319 q 214 340 213 336 q 107 304 122 313 q 93 300 100 300 q 68 314 76 300 q 65 336 63 325 q 79 354 68 347 q 236 406 104 368 q 293 600 278 529 q 307 687 306 653 q 305 728 308 721 q 299 738 301 735 q 292 740 296 739 q 271 735 288 740 q 232 719 254 731 q 169 678 210 707 q 78 606 128 649 q 58 599 69 597 q 38 609 46 600 q 31 630 31 618 q 42 649 32 642 q 224 778 156 746 q 331 785 293 811 q 363 715 360 765 q 351 598 367 665 q 301 425 336 531 q 393 446 371 443 q 414 440 404 447 z "},"8":{"ha":399,"x_min":10,"x_max":446,"o":"m 431 619 q 362 505 424 574 q 222 375 300 436 q 263 297 235 349 q 333 132 328 174 q 315 17 342 65 q 233 -49 289 -31 q 176 -58 206 -58 q 90 -37 131 -58 q 29 22 50 -15 q 15 70 18 44 q 17 134 11 96 q 56 221 24 172 q 146 322 89 269 q 114 333 126 315 q 110 356 108 344 q 122 374 113 367 q 150 392 136 382 q 101 551 108 485 q 117 649 94 603 q 190 724 140 694 q 295 758 239 754 q 389 736 351 761 q 431 619 444 697 m 276 124 q 211 271 272 156 q 200 293 204 285 q 88 158 119 222 q 79 50 56 94 q 138 6 97 19 q 215 6 178 -7 q 276 124 289 29 m 197 428 q 317 542 265 483 q 375 629 369 600 q 357 689 382 671 q 308 701 339 701 q 219 675 263 701 q 157 558 149 632 q 197 428 164 504 z "},"9":{"ha":304,"x_min":15,"x_max":376,"o":"m 317 663 q 355 669 333 682 q 365 633 376 656 q 240 301 317 529 q 139 -24 163 72 q 111 -46 133 -46 q 104 -44 108 -46 q 87 -32 93 -42 q 83 -11 81 -22 q 153 222 100 58 q 257 518 207 386 q 75 467 150 432 q 31 512 44 481 q 24 581 17 543 q 99 684 36 639 q 271 733 161 729 q 286 730 279 733 q 297 720 293 726 q 301 706 301 714 q 293 685 301 694 q 274 676 285 676 q 139 642 189 674 q 81 568 89 610 q 99 519 72 531 q 122 515 108 517 q 156 523 135 514 q 200 547 176 532 q 254 592 224 563 q 317 663 285 622 z "},"\u0000":{"ha":0,"x_min":0,"x_max":0,"o":""},"\n":{"ha":0,"x_min":0,"x_max":0,"o":""},"\r":{"ha":0,"x_min":0,"x_max":0,"o":""}," ":{"ha":426,"x_min":0,"x_max":0,"o":""},"!":{"ha":407,"x_min":67,"x_max":340,"o":"m 299 744 q 303 747 299 744 q 319 747 308 750 q 335 735 329 744 q 336 714 340 725 q 219 238 278 510 q 157 -40 182 65 q 131 -60 151 -60 q 124 -60 128 -60 q 108 -47 114 -57 q 104 -28 101 -37 q 168 250 131 78 q 285 729 226 522 q 299 744 289 739 m 96 -132 q 133 -146 126 -122 q 115 -182 142 -171 q 90 -186 104 -186 q 70 -173 74 -185 q 75 -148 67 -161 q 96 -132 83 -135 z "},"\"":{"ha":371,"x_min":68,"x_max":301,"o":"m 160 760 q 193 701 193 736 q 113 586 193 646 q 96 581 106 581 q 75 592 83 581 q 69 611 68 600 q 81 629 71 622 q 139 701 139 672 q 129 717 139 710 q 118 735 119 724 q 123 755 117 746 q 140 765 129 764 q 160 760 151 767 m 274 760 q 301 706 301 740 q 272 628 301 669 q 201 556 242 586 q 185 550 193 550 q 164 561 171 550 q 158 581 157 569 q 169 599 160 592 q 224 655 201 624 q 247 706 247 686 q 242 717 247 713 q 231 735 233 724 q 236 755 229 746 q 254 765 243 764 q 274 760 265 767 z "},"#":{"ha":1061,"x_min":69,"x_max":993,"o":"m 965 313 q 984 305 976 313 q 992 286 992 297 q 984 267 992 275 q 965 258 976 258 q 715 257 883 258 q 700 257 710 257 q 686 257 690 257 q 583 151 638 207 q 771 135 686 146 q 789 126 782 135 q 794 106 796 117 q 785 89 793 96 q 768 82 778 82 q 764 82 767 82 q 535 100 663 94 q 257 -172 319 -118 q 239 -179 250 -179 q 219 -169 228 -179 q 213 -150 213 -161 q 222 -132 214 -139 q 463 103 279 -82 q 358 106 411 104 q 125 -140 211 -43 q 106 -150 118 -150 q 88 -143 96 -150 q 78 -125 79 -136 q 85 -106 78 -114 q 285 107 156 -26 q 111 107 219 107 l 96 107 q 77 115 85 107 q 69 133 69 122 q 77 152 69 144 q 96 160 85 160 l 111 160 q 336 160 257 160 q 432 256 385 208 q 213 258 308 256 q 194 267 201 260 q 187 286 186 275 q 196 305 188 297 q 214 313 204 313 q 488 308 329 308 q 799 567 703 514 q 819 569 808 572 q 835 557 829 567 q 837 536 840 547 q 824 521 833 525 q 567 308 744 476 q 663 310 611 310 q 814 478 797 451 q 831 490 819 488 q 851 486 842 492 q 863 469 860 481 q 860 449 865 458 q 738 311 843 424 q 965 313 885 313 m 513 154 q 611 256 564 207 q 510 256 571 256 q 410 158 461 208 q 513 154 464 157 z "},"$":{"ha":475,"x_min":-28,"x_max":522,"o":"m 504 699 q 518 684 514 694 q 517 664 522 674 q 502 650 513 654 q 482 650 492 646 q 436 665 460 661 q 300 315 367 493 q 331 57 392 178 q 287 -1 314 25 q 226 -44 260 -28 q 157 -67 192 -61 q 113 -178 133 -125 q 88 -194 106 -194 q 76 -192 82 -194 q 63 -177 67 -187 q 63 -157 58 -167 q 99 -68 81 -114 q -22 17 15 -57 q -24 37 -28 26 q -10 53 -21 47 q 10 55 0 58 q 25 40 21 51 q 119 -17 53 -14 q 201 204 147 57 q 240 308 226 272 q 194 429 203 364 q 200 549 185 494 q 250 646 215 604 q 401 722 311 721 q 432 796 417 760 q 446 810 436 806 q 466 810 456 814 q 481 795 476 806 q 481 775 485 785 q 457 715 469 749 q 504 699 481 710 m 290 611 q 246 504 254 567 q 265 374 238 442 q 379 667 321 521 q 290 611 328 657 m 283 82 q 276 250 321 157 q 251 185 269 235 q 181 -6 206 58 q 283 82 250 19 z "},"%":{"ha":735,"x_min":-50,"x_max":693,"o":"m 646 858 q 617 686 693 814 q 524 554 586 636 q 412 413 461 472 q 269 242 363 353 q 174 128 207 168 q 92 28 140 88 q 22 -66 44 -32 q -3 -111 -1 -100 q -10 -126 -4 -121 q -25 -132 -17 -132 q -28 -132 -26 -132 q -36 -130 -32 -132 q -43 -124 -40 -128 q -47 -117 -46 -121 q -49 -107 -49 -112 q 17 6 -46 -75 q 233 271 81 88 q 578 710 515 606 q 603 757 593 736 q 615 790 613 778 q 618 810 618 801 q 617 821 618 818 q 614 825 615 824 q 508 813 594 843 q 329 732 422 783 q 294 607 335 669 q 182 517 233 508 q 143 558 151 522 q 144 599 140 576 q 160 644 149 621 q 192 690 171 667 q 242 732 214 714 q 256 742 244 735 q 294 764 268 749 q 349 794 319 779 q 414 825 379 808 q 483 853 449 842 q 548 872 517 865 q 605 875 579 878 q 646 858 631 872 m 256 631 q 283 704 279 668 q 267 693 275 699 q 210 638 229 668 q 188 582 190 607 q 190 563 186 565 q 201 565 194 561 q 224 587 208 569 q 256 631 239 604 m 467 285 q 470 288 467 285 q 483 292 474 292 q 499 285 493 292 q 506 268 506 278 q 487 177 506 228 q 442 87 468 126 q 392 35 415 47 q 369 28 381 28 q 351 33 360 28 q 329 94 328 47 q 349 162 331 126 q 397 214 368 197 q 453 221 424 228 q 460 269 460 247 q 467 285 460 278 m 375 79 q 438 176 407 106 q 433 178 436 178 q 419 174 426 178 q 389 138 403 164 q 375 93 375 113 q 375 79 375 85 z "},"&":{"ha":635,"x_min":-36,"x_max":615,"o":"m 599 229 q 590 160 614 203 q 508 68 567 118 q 419 7 472 38 q 488 -107 449 -57 q 494 -126 494 -115 q 483 -144 493 -137 q 467 -150 476 -150 q 446 -140 454 -150 q 372 -17 404 -86 q 240 -67 306 -49 q 117 -83 174 -85 q 35 -54 60 -81 q 169 224 -36 24 q 296 358 240 293 q 310 547 294 457 q 361 676 324 628 q 438 729 399 724 q 504 694 483 736 q 491 557 526 649 q 350 339 456 465 q 400 57 354 182 q 474 108 442 82 q 549 197 535 161 q 543 196 547 196 q 524 197 533 192 q 510 212 514 201 q 510 232 506 222 q 526 246 515 242 q 599 229 579 264 m 363 538 q 351 426 354 486 q 415 522 389 476 q 449 594 440 567 q 460 643 457 621 q 456 671 463 665 q 449 676 453 676 q 446 676 447 676 q 399 635 424 672 q 363 538 374 599 m 75 -18 q 181 -26 97 -42 q 353 32 264 -11 q 300 282 311 146 q 207 185 257 235 q 140 116 168 149 q 99 62 113 83 q 77 22 85 40 q 71 -3 69 4 q 75 -18 72 -11 z "},"'":{"ha":282,"x_min":68,"x_max":214,"o":"m 186 760 q 213 706 213 740 q 183 628 213 669 q 113 556 153 586 q 96 550 106 550 q 75 561 83 550 q 69 581 68 569 q 81 599 71 592 q 120 635 101 615 q 149 674 139 654 q 160 706 160 693 q 154 717 160 713 q 143 735 144 724 q 148 755 142 746 q 165 765 154 764 q 186 760 176 767 z "},"(":{"ha":454,"x_min":58,"x_max":581,"o":"m 549 834 q 555 835 549 834 q 569 829 560 836 q 579 811 578 822 q 574 792 581 800 q 218 218 335 481 q 164 -336 60 -139 q 166 -356 169 -346 q 153 -372 163 -367 q 140 -375 147 -375 q 117 -361 124 -375 q 74 -227 85 -300 q 75 -77 64 -154 q 109 81 86 0 q 172 244 132 161 q 252 405 211 328 q 344 560 293 482 q 440 700 396 638 q 532 824 483 763 q 549 834 539 832 z "},")":{"ha":496,"x_min":-171,"x_max":429,"o":"m 374 863 q 426 530 428 703 q 363 193 424 357 q 172 -127 297 14 q -129 -360 47 -268 q -142 -362 -135 -362 q -165 -349 -157 -362 q -167 -328 -169 -339 q -154 -312 -164 -318 q 131 -92 13 -225 q 313 213 250 42 q 372 530 369 367 q 324 844 375 693 q 324 865 319 856 q 340 878 329 875 q 360 877 350 882 q 374 863 369 872 z "},"*":{"ha":449,"x_min":67,"x_max":382,"o":"m 379 679 q 376 659 382 668 q 360 647 369 650 q 276 599 344 643 q 300 558 288 579 q 326 515 324 518 q 331 495 332 506 q 322 478 331 485 q 304 472 314 472 q 285 482 292 472 q 254 531 281 485 q 246 544 253 533 q 217 454 219 469 q 190 433 211 433 q 185 433 188 433 q 167 445 174 436 q 164 465 161 454 q 188 539 167 481 q 174 529 186 538 q 111 488 124 496 q 96 483 104 483 q 74 496 82 483 q 70 515 68 504 q 82 532 72 526 q 143 574 94 540 q 204 615 179 597 q 158 683 167 675 q 150 703 150 692 q 158 722 150 714 q 176 730 165 729 q 196 722 188 731 q 233 668 206 714 q 272 768 263 747 q 286 782 276 778 q 306 782 296 786 q 321 767 317 778 q 321 747 325 757 q 293 672 315 732 q 347 699 331 696 q 361 699 354 701 q 373 692 368 697 q 379 679 378 686 z "},"+":{"ha":479,"x_min":68,"x_max":410,"o":"m 382 367 q 401 359 393 367 q 408 340 408 351 q 401 322 408 329 q 382 314 393 314 q 263 310 344 314 q 238 253 251 283 q 213 193 221 211 q 196 159 201 165 q 178 153 190 153 q 159 160 167 153 q 151 179 151 168 q 154 192 151 186 q 189 274 157 197 q 203 307 197 293 q 156 304 181 306 q 97 301 115 303 q 96 301 97 301 q 78 309 86 301 q 69 326 69 317 q 76 346 69 338 q 94 356 83 354 q 153 358 107 356 q 226 361 201 361 q 274 471 269 464 q 290 483 279 481 q 310 481 301 486 q 322 465 319 475 q 321 444 325 454 q 286 364 317 436 q 382 367 349 367 z "},",":{"ha":231,"x_min":14,"x_max":161,"o":"m 133 58 q 160 4 160 39 q 130 -74 160 -32 q 60 -146 100 -115 q 43 -151 53 -151 q 22 -140 29 -151 q 17 -121 15 -132 q 28 -103 18 -110 q 83 -47 60 -78 q 107 4 107 -15 q 101 15 107 11 q 90 33 92 22 q 95 52 89 43 q 113 63 101 61 q 133 58 124 65 z "},"-":{"ha":485,"x_min":68,"x_max":418,"o":"m 413 260 q 413 240 417 250 q 400 224 410 229 q 279 221 393 221 q 99 219 114 222 q 96 219 97 219 q 78 226 86 219 q 69 243 71 233 q 72 257 69 250 q 81 268 75 264 q 93 274 86 272 q 281 274 111 275 q 385 274 375 274 q 413 260 404 278 z "},".":{"ha":186,"x_min":32,"x_max":121,"o":"m 81 63 q 117 49 113 72 q 93 11 119 24 q 61 4 79 4 q 47 35 32 7 q 81 63 60 56 z "},"/":{"ha":729,"x_min":68,"x_max":896,"o":"m 865 863 q 871 863 865 863 q 885 857 876 864 q 894 839 893 850 q 888 819 894 828 q 408 222 669 554 q 117 -142 224 -12 q 96 -151 108 -151 q 79 -146 86 -151 q 69 -127 71 -137 q 75 -107 68 -117 q 365 254 182 21 q 847 853 628 588 q 865 863 854 861 z "},":":{"ha":317,"x_min":58,"x_max":251,"o":"m 211 318 q 247 304 243 328 q 224 267 250 279 q 192 260 210 260 q 178 290 163 263 q 211 318 192 310 m 107 81 q 142 67 139 90 q 118 29 146 43 q 88 24 106 22 q 74 53 58 25 q 107 81 86 75 z "},";":{"ha":353,"x_min":68,"x_max":289,"o":"m 185 58 q 213 4 213 39 q 183 -74 213 -32 q 113 -146 154 -115 q 96 -151 106 -151 q 75 -140 83 -151 q 69 -121 68 -132 q 81 -103 71 -110 q 136 -47 113 -78 q 158 4 160 -15 q 153 15 158 11 q 143 33 144 22 q 148 52 142 43 q 165 63 154 61 q 185 58 176 65 m 249 318 q 283 304 281 328 q 260 267 288 281 q 228 260 246 260 q 215 290 200 263 q 249 318 228 310 z "},"<":{"ha":496,"x_min":68,"x_max":429,"o":"m 404 540 q 410 540 404 540 q 422 530 415 539 q 426 510 428 521 q 415 492 425 499 q 163 324 274 388 q 122 285 124 301 q 126 273 122 279 q 136 260 129 267 q 150 247 143 253 q 169 233 157 240 q 190 219 181 225 q 213 204 199 213 q 235 191 226 196 q 257 178 243 186 q 336 131 311 147 q 347 114 344 125 q 343 93 350 103 q 321 82 336 82 q 307 86 313 82 q 231 132 283 101 q 167 170 188 157 q 119 204 146 183 q 81 244 92 225 q 69 285 69 264 q 136 371 69 333 q 385 535 244 432 q 404 540 393 542 z "},"=":{"ha":607,"x_min":68,"x_max":539,"o":"m 511 407 q 530 399 522 407 q 538 381 538 392 q 530 362 538 369 q 511 354 522 354 l 490 354 q 165 353 193 356 q 164 353 164 353 q 145 360 153 353 q 136 376 138 367 q 143 396 136 388 q 161 406 150 404 q 490 407 190 408 l 511 407 m 486 210 q 506 203 497 211 q 514 185 514 196 q 512 174 514 179 q 506 165 510 169 q 498 159 503 161 q 488 157 493 157 q 381 157 481 157 q 99 156 121 157 q 96 156 97 156 q 78 163 86 156 q 69 181 71 169 q 76 200 68 192 q 94 208 83 208 q 381 210 119 211 q 486 210 479 210 z "},">":{"ha":532,"x_min":67,"x_max":464,"o":"m 297 488 q 349 458 332 468 q 391 431 365 447 q 429 401 417 414 q 451 373 442 389 q 463 342 461 357 q 429 286 464 308 q 108 92 240 160 q 96 89 103 89 q 72 103 81 89 q 71 123 68 113 q 83 139 74 133 q 399 331 213 207 q 408 340 408 336 q 271 440 407 364 q 165 507 190 486 q 156 525 157 514 q 162 545 154 536 q 180 555 169 554 q 200 549 190 556 q 297 488 221 531 z "},"?":{"ha":436,"x_min":10,"x_max":392,"o":"m 332 722 q 346 539 392 688 q 194 188 315 436 q 100 -36 101 -6 q 91 -53 99 -46 q 74 -60 83 -60 q 71 -60 72 -60 q 53 -51 60 -60 q 46 -32 46 -43 q 71 47 49 -6 q 147 211 93 99 q 296 554 265 456 q 310 624 307 594 q 311 663 314 653 q 306 676 308 674 q 301 676 303 674 q 285 673 299 679 q 257 658 272 667 q 213 624 242 649 q 150 564 183 599 q 131 556 142 556 q 112 563 119 556 q 104 582 104 571 q 111 601 104 593 q 332 722 267 761 m 39 -132 q 76 -146 68 -122 q 58 -182 85 -171 q 33 -186 47 -186 q 13 -173 17 -185 q 18 -148 10 -161 q 39 -132 26 -135 z "},"@":{"ha":839,"x_min":36,"x_max":790,"o":"m 738 488 q 760 278 789 399 q 669 78 729 157 q 553 11 608 0 q 490 214 472 29 q 368 94 421 140 q 296 68 322 54 q 281 117 275 81 q 317 215 286 154 q 399 333 349 276 q 496 400 450 390 q 588 354 553 411 q 581 325 599 336 q 551 332 563 314 q 492 354 528 369 q 386 247 440 332 q 322 114 332 161 q 339 126 331 118 q 476 261 393 174 q 506 292 497 283 q 531 295 517 303 q 542 272 544 288 q 531 188 533 226 q 531 125 529 149 q 538 85 533 101 q 549 63 543 69 q 561 54 556 56 q 642 115 593 47 q 718 289 692 182 q 726 372 729 329 q 708 450 722 414 q 660 515 694 486 q 578 556 626 543 q 516 562 549 560 q 447 552 483 564 q 373 522 410 540 q 300 469 336 504 q 232 392 264 435 q 172 285 200 349 q 125 147 143 222 q 168 -65 85 -8 q 290 -90 215 -97 q 426 -39 365 -82 q 456 -44 444 -26 q 451 -74 468 -61 q 264 -135 365 -135 q 144 -100 193 -135 q 83 158 36 -26 q 138 315 104 243 q 213 438 172 388 q 300 526 253 488 q 395 581 347 564 q 493 605 443 599 q 589 597 543 611 q 738 488 689 572 z "},"A":{"ha":1525,"x_min":65,"x_max":1458,"o":"m 1444 285 q 1456 267 1454 278 q 1451 247 1457 256 q 1429 236 1443 236 q 1418 239 1424 236 q 1143 253 1390 244 q 1033 -229 1075 -32 q 949 -733 949 -622 q 961 -712 954 -724 q 978 -700 967 -703 q 998 -703 989 -697 q 1010 -719 1007 -708 q 1007 -739 1013 -729 q 938 -807 967 -807 q 924 -804 931 -807 q 901 -774 907 -797 q 898 -687 894 -751 q 922 -508 901 -622 q 984 -206 943 -394 q 1089 254 1025 -18 q 807 261 994 257 q 744 263 779 263 q 419 -294 535 -136 q 358 -357 389 -335 q 301 -383 328 -379 q 257 -382 275 -386 q 222 -368 239 -378 q 108 -199 150 -326 q 69 83 65 -72 q 124 353 74 238 q 306 543 186 494 q 589 540 426 592 q 605 528 600 538 q 606 508 610 518 q 593 492 603 497 q 572 490 583 486 q 467 511 518 507 q 359 503 415 515 q 254 448 303 492 q 172 331 206 404 q 135 204 147 274 q 122 68 122 135 q 132 -63 122 1 q 159 -180 142 -128 q 199 -269 176 -232 q 249 -322 222 -307 q 376 -262 307 -356 q 685 264 488 -112 q 290 281 324 274 q 273 292 279 283 q 269 313 267 301 q 281 329 271 324 q 300 333 290 335 q 713 317 331 326 q 897 678 774 436 q 1029 939 978 839 q 1130 1129 1081 1039 q 1208 1266 1179 1219 q 1264 1347 1238 1313 q 1308 1390 1290 1381 q 1342 1393 1325 1399 q 1370 1356 1364 1385 q 1371 1275 1376 1326 q 1322 1006 1363 1185 q 1238 647 1306 926 q 1156 306 1185 428 q 1444 285 1426 297 m 808 315 q 1101 307 990 310 q 1185 660 1139 468 q 1271 1017 1253 938 q 1319 1332 1325 1263 q 1258 1245 1297 1310 q 1158 1067 1218 1181 q 1057 874 1097 953 q 944 654 1017 796 q 772 315 831 429 q 790 315 778 315 q 808 315 801 315 z "},"B":{"ha":1360,"x_min":43,"x_max":1244,"o":"m 1147 568 q 1235 317 1228 467 q 1175 13 1243 168 q 854 -366 1074 -222 q 347 -531 635 -510 q 346 -531 347 -531 q 327 -524 335 -531 q 319 -506 319 -517 q 326 -486 318 -494 q 343 -478 333 -478 q 823 -323 615 -458 q 1126 33 1031 -187 q 1183 311 1189 176 q 1106 535 1176 446 q 892 649 1028 631 q 610 421 774 526 q 357 304 446 315 q 179 -687 199 -486 q 185 -674 182 -681 q 199 -658 189 -662 q 220 -658 210 -654 q 235 -673 231 -662 q 235 -693 239 -683 q 195 -776 211 -751 q 161 -800 179 -800 q 150 -797 156 -800 q 129 -777 135 -793 q 126 -702 124 -761 q 147 -525 128 -643 q 205 -201 167 -407 q 306 317 243 4 q 293 365 286 335 q 335 461 307 415 q 389 732 360 585 q 503 1300 476 1158 q 381 1254 438 1283 q 216 1128 279 1206 q 133 956 153 1051 q 136 749 113 861 q 133 728 139 738 q 116 717 126 719 q 96 720 106 714 q 85 738 86 726 q 115 1072 43 924 q 357 1303 186 1219 q 514 1357 431 1339 q 519 1383 517 1374 q 524 1396 519 1390 q 536 1403 529 1401 q 550 1404 543 1406 q 567 1394 561 1403 q 571 1374 574 1385 q 571 1370 571 1372 q 571 1368 571 1368 q 842 1354 714 1389 q 1038 1238 971 1319 q 1091 1131 1078 1189 q 1097 1019 1104 1072 q 1065 909 1089 967 q 1016 810 1042 851 q 960 728 990 768 q 933 694 949 711 q 1147 568 1068 667 m 368 360 q 576 464 440 381 q 821 651 713 547 q 707 639 767 651 q 523 569 611 619 q 385 442 435 519 q 368 360 375 392 m 871 704 q 918 760 897 732 q 1040 1011 1019 897 q 997 1203 1061 1125 q 815 1306 936 1276 q 560 1311 694 1335 q 442 722 533 1168 q 407 550 421 621 q 697 692 521 657 q 871 704 789 710 z "},"C":{"ha":1072,"x_min":61,"x_max":1147,"o":"m 1108 325 q 1113 327 1108 325 q 1128 324 1118 329 q 1142 309 1139 319 q 1142 289 1146 299 q 865 -217 1003 -8 q 601 -532 728 -425 q 365 -639 474 -639 q 303 -629 333 -639 q 144 -474 204 -599 q 72 -160 83 -350 q 99 271 61 29 q 236 793 139 524 q 483 1269 350 1110 q 669 1361 592 1399 q 742 1235 724 1335 q 749 986 761 1136 q 711 685 736 836 q 647 360 686 535 q 635 344 644 350 q 615 340 625 338 q 598 352 604 343 q 594 372 592 361 q 661 713 636 558 q 694 972 686 868 q 697 1151 701 1076 q 680 1265 693 1226 q 646 1313 667 1303 q 594 1301 626 1322 q 525 1236 563 1281 q 297 803 401 1088 q 151 263 193 519 q 147 -317 96 -79 q 215 -492 171 -425 q 319 -578 260 -560 q 638 -425 451 -619 q 1093 311 857 -196 q 1108 325 1097 321 z "},"D":{"ha":1182,"x_min":61,"x_max":1243,"o":"m 1075 1336 q 1131 1293 1106 1318 q 1182 1227 1157 1268 q 1219 1134 1207 1186 q 1238 1009 1232 1082 q 1228 849 1243 936 q 1081 333 1189 585 q 810 -126 974 82 q 524 -406 671 -301 q 271 -511 378 -511 q 268 -511 269 -511 q 233 -507 250 -511 q 208 -687 214 -624 q 214 -674 211 -681 q 228 -658 218 -662 q 249 -658 239 -654 q 264 -673 260 -662 q 264 -693 268 -683 q 224 -776 240 -751 q 189 -800 208 -800 q 179 -797 185 -800 q 158 -776 164 -793 q 156 -689 151 -758 q 183 -486 161 -619 q 117 -358 126 -447 q 118 -344 115 -351 q 127 -333 121 -337 q 140 -328 133 -329 q 151 -329 146 -328 q 160 -334 156 -331 q 167 -342 164 -337 q 169 -351 169 -346 q 193 -422 175 -397 q 417 722 249 -100 q 515 1213 489 1079 q 474 1185 493 1199 q 351 1080 408 1138 q 244 948 294 1022 q 164 792 193 874 q 125 617 135 711 q 139 426 115 524 q 135 406 140 415 q 118 395 129 397 q 98 399 107 393 q 86 415 89 404 q 72 620 61 519 q 113 808 82 721 q 198 975 144 896 q 312 1116 251 1054 q 442 1228 372 1178 q 528 1283 485 1258 q 547 1383 539 1342 q 558 1401 549 1394 q 578 1405 567 1407 q 595 1394 589 1403 q 600 1374 601 1385 q 589 1314 594 1349 q 853 1385 725 1379 q 1075 1336 982 1392 m 1175 856 q 1165 1128 1197 1018 q 1047 1292 1133 1239 q 835 1331 960 1343 q 576 1249 710 1319 q 468 711 549 1107 q 242 -454 294 -142 q 268 -458 254 -457 q 271 -458 269 -458 q 492 -365 357 -458 q 767 -93 628 -271 q 875 60 822 -24 q 990 264 928 143 q 1102 539 1053 385 q 1175 856 1151 693 z "},"E":{"ha":1178,"x_min":43,"x_max":1515,"o":"m 1488 1340 q 1506 1333 1499 1340 q 1514 1314 1514 1325 q 1510 1301 1514 1307 q 1501 1291 1507 1294 q 1488 1288 1494 1288 q 1106 1252 1328 1285 q 676 1168 883 1219 q 571 757 649 1051 q 481 404 510 524 q 858 492 675 456 q 1090 526 1040 529 q 1108 517 1101 525 q 1115 499 1115 510 q 1106 480 1114 488 q 1088 472 1099 472 q 982 462 1060 475 q 795 425 904 449 q 567 372 686 401 q 465 346 514 358 q 328 -393 332 -193 q 363 -504 326 -489 q 417 -502 383 -514 q 497 -458 451 -490 q 583 -395 543 -426 q 681 -311 624 -364 q 767 -230 738 -258 q 847 -153 797 -201 q 890 -110 876 -124 l 914 -87 q 989 -17 968 -35 q 1010 1 1003 -4 q 1027 13 1017 7 q 1046 19 1038 19 q 1061 11 1054 18 q 1072 -5 1071 4 q 1065 -31 1074 -14 q 1046 -61 1056 -47 q 1011 -108 1036 -75 q 993 -119 1004 -118 q 974 -114 982 -121 q 968 -110 971 -112 q 951 -126 965 -112 l 928 -149 q 885 -190 914 -162 q 763 -308 813 -261 q 652 -408 713 -356 q 547 -490 592 -460 q 458 -541 503 -521 q 381 -561 414 -561 q 342 -553 358 -561 q 275 -393 272 -524 q 406 329 278 -189 q 89 215 125 250 q 71 208 82 208 q 52 216 60 208 q 44 235 44 224 q 53 254 44 246 q 421 389 101 301 q 519 771 453 517 q 618 1153 590 1040 q 394 1083 490 1119 q 232 1007 297 1047 q 156 929 167 967 q 201 856 144 894 q 212 838 210 849 q 208 818 214 828 q 186 807 200 807 q 171 811 178 807 q 104 944 82 872 q 632 1213 147 1088 q 646 1272 640 1247 q 657 1289 647 1283 q 677 1292 667 1294 q 694 1281 688 1290 q 697 1261 700 1272 q 690 1226 694 1247 q 1113 1308 894 1276 q 1488 1340 1331 1339 z "},"F":{"ha":1081,"x_min":67,"x_max":1592,"o":"m 1564 1444 q 1590 1403 1590 1431 q 1553 1340 1590 1376 q 1404 1244 1515 1304 q 1384 1242 1394 1239 q 1368 1256 1374 1246 q 1366 1276 1363 1265 q 1379 1292 1369 1286 q 1535 1399 1510 1363 q 1356 1391 1500 1413 q 996 1303 1213 1369 q 839 1251 919 1279 q 722 711 808 1108 q 617 222 653 393 q 928 268 785 271 q 947 260 939 268 q 954 240 954 251 q 946 222 954 229 q 926 214 938 214 q 604 163 778 217 q 442 -686 463 -500 q 447 -674 444 -679 q 462 -658 451 -662 q 483 -658 472 -654 q 497 -673 493 -662 q 497 -693 501 -683 q 456 -776 472 -751 q 422 -800 440 -800 q 411 -797 417 -800 q 387 -758 390 -790 q 397 -622 383 -726 q 461 -261 415 -497 q 544 143 494 -94 q 181 -65 342 68 q 164 -71 174 -71 q 143 -61 151 -71 q 138 -42 136 -53 q 147 -24 139 -31 q 558 204 328 126 q 669 724 594 378 q 779 1231 750 1093 q 111 904 381 1085 q 96 900 104 900 q 74 911 82 900 q 70 931 68 921 q 82 949 72 942 q 792 1292 367 1140 q 810 1383 803 1344 q 822 1401 813 1394 q 842 1405 831 1407 q 859 1394 853 1403 q 863 1374 865 1385 q 851 1313 857 1346 q 964 1349 910 1332 q 1203 1415 1088 1388 q 1424 1454 1318 1442 q 1564 1444 1529 1467 z "},"G":{"ha":1288,"x_min":51,"x_max":1243,"o":"m 1223 360 q 1228 358 1223 360 q 1238 346 1233 356 q 1239 326 1243 336 q 1225 311 1235 315 q 954 253 1154 279 q 850 -274 901 18 q 783 -710 799 -565 q 806 -708 794 -704 q 817 -717 813 -711 q 823 -728 822 -722 q 822 -743 824 -735 q 792 -813 804 -792 q 761 -835 779 -835 q 751 -833 757 -835 q 727 -796 731 -826 q 733 -678 724 -765 q 776 -383 746 -568 q 868 101 817 -143 q 516 -385 690 -224 q 214 -499 342 -546 q 74 -247 94 -454 q 138 274 53 -39 q 355 808 201 508 q 663 1271 508 1107 q 790 1361 726 1339 q 901 1357 853 1383 q 940 1323 922 1344 q 972 1254 957 1301 q 990 1142 988 1207 q 977 969 992 1076 q 926 731 963 863 q 914 714 924 719 q 894 711 904 708 q 878 724 883 714 q 875 744 872 733 q 931 1042 921 915 q 926 1231 942 1169 q 875 1310 910 1292 q 798 1307 844 1328 q 701 1235 751 1286 q 401 783 551 1075 q 189 260 251 490 q 126 -243 106 -47 q 233 -449 144 -417 q 290 -454 258 -458 q 358 -433 322 -450 q 433 -386 393 -417 q 514 -314 472 -356 q 882 244 697 -128 q 704 226 825 239 q 401 192 499 206 q 399 192 400 192 q 381 199 389 192 q 372 215 374 206 q 374 229 371 222 q 382 240 376 236 q 394 246 388 244 q 699 279 493 258 q 910 301 843 294 q 911 306 910 303 q 914 311 913 310 q 947 325 924 333 q 964 308 958 321 q 1203 360 1143 332 q 1223 360 1213 364 z "},"H":{"ha":1182,"x_min":-564,"x_max":1244,"o":"m 1242 554 q 1242 540 1243 546 q 1236 528 1240 533 q 1225 519 1232 522 q 879 414 1132 490 q 824 117 860 307 q 781 -104 794 -32 q 752 -258 768 -176 q 728 -376 736 -340 q 701 -397 724 -397 q 696 -397 699 -397 q 680 -385 686 -394 q 676 -365 674 -376 q 771 126 692 -287 q 822 397 804 307 q 820 397 821 397 q 818 396 819 396 q 242 219 438 281 q 54 -765 81 -562 q 67 -779 63 -769 q 68 -799 72 -789 q 57 -828 61 -818 q 44 -847 53 -837 q 26 -856 36 -856 q 17 -854 22 -856 q -5 -825 -3 -850 q 1 -756 -7 -800 q 31 -574 10 -692 q 142 -4 68 -369 q 183 201 161 93 q -33 131 63 163 q -494 -49 -412 6 q -483 -75 -481 -58 q -510 -97 -487 -97 q -515 -96 -512 -97 q -562 -56 -560 -87 q -533 -10 -562 -33 q -415 50 -504 13 q -81 172 -299 99 q 194 261 39 211 q 358 1046 265 604 l 365 1074 q 376 1160 376 1126 q 374 1201 376 1194 q 368 1208 371 1207 q 359 1208 365 1210 q 336 1197 353 1207 q 300 1171 319 1188 q 198 1058 251 1129 q 103 911 144 988 q 56 807 74 856 q 33 722 38 758 q 38 661 28 685 q 117 628 53 624 q 136 622 128 629 q 145 603 144 614 q 139 583 146 592 q 121 575 132 575 q -12 642 18 568 q -12 773 -33 690 q 56 938 10 856 q 159 1094 103 1019 q 264 1211 215 1168 q 394 1254 347 1283 q 417 1064 451 1221 l 411 1035 q 253 279 322 611 q 803 447 442 338 q 813 450 807 449 q 824 453 818 451 q 833 456 829 456 q 1021 1378 975 1199 q 1033 1394 1024 1389 q 1053 1397 1043 1400 q 1069 1385 1064 1394 q 1072 1365 1075 1375 q 890 474 1028 1190 q 1208 571 1118 542 q 1228 569 1218 574 q 1242 554 1239 564 z "},"I":{"ha":713,"x_min":67,"x_max":788,"o":"m 717 1376 q 735 1110 788 1331 q 501 90 647 746 q 326 -761 356 -565 q 326 -762 326 -762 q 342 -776 338 -765 q 343 -796 346 -786 q 330 -827 335 -817 q 316 -848 325 -837 q 297 -858 307 -858 q 288 -857 292 -858 q 266 -826 268 -850 q 274 -750 264 -801 q 310 -553 285 -682 q 440 58 354 -331 q 682 1122 581 694 q 703 1253 701 1201 q 699 1316 704 1304 q 688 1332 693 1328 q 592 1292 663 1347 q 424 1114 515 1232 q 258 860 333 996 q 144 585 182 725 q 135 358 106 446 q 350 236 175 239 q 369 228 361 236 q 376 210 376 221 q 369 191 376 199 q 350 183 361 183 q 273 190 310 183 q 198 214 236 197 q 130 263 160 231 q 85 342 100 296 q 71 417 74 376 q 72 499 68 458 q 88 583 76 539 q 112 665 99 626 q 142 745 125 704 q 175 817 160 786 q 207 881 190 849 q 378 1144 282 1019 q 558 1335 475 1269 q 717 1376 660 1413 z "},"J":{"ha":1083,"x_min":61,"x_max":1183,"o":"m 1182 642 q 1179 628 1182 635 q 1171 618 1176 622 q 1158 613 1165 614 q 856 551 996 594 q 613 -556 700 -133 q 529 -767 583 -687 q 401 -865 475 -847 q 361 -871 382 -871 q 182 -772 264 -871 q 92 -578 122 -700 q 72 -301 61 -457 q 142 1 83 -144 q 474 424 246 257 q 811 593 619 529 q 911 1022 869 851 q 938 1175 933 1113 q 935 1258 942 1238 q 921 1281 929 1278 q 874 1262 904 1286 q 808 1188 843 1238 q 753 1082 774 1139 q 738 1030 743 1056 q 732 974 732 1004 q 748 917 732 943 q 794 878 764 892 q 808 863 804 874 q 808 843 813 853 q 794 829 804 833 q 772 829 783 825 q 685 932 704 860 q 703 1101 667 1004 q 808 1273 738 1196 q 936 1332 879 1350 q 963 1010 1033 1303 q 869 611 924 849 q 1153 665 1001 649 q 1172 660 1163 667 q 1182 642 1181 653 m 560 -544 q 797 532 644 -140 q 563 421 668 486 q 388 280 458 356 q 270 132 317 204 q 192 -19 224 60 q 130 -266 146 -132 q 137 -531 114 -400 q 222 -737 160 -661 q 305 -804 261 -785 q 389 -814 349 -824 q 491 -731 447 -800 q 560 -544 535 -661 z "},"K":{"ha":1122,"x_min":54,"x_max":1367,"o":"m 1363 1424 q 1266 1113 1321 1258 q 1154 860 1211 968 q 1032 660 1097 753 q 907 505 967 568 q 783 390 847 442 q 669 309 719 339 q 569 257 619 279 q 400 200 482 218 q 614 -125 472 114 q 678 -233 656 -196 q 740 -331 700 -269 q 807 -426 779 -392 q 871 -500 835 -461 q 941 -560 907 -539 q 1008 -587 975 -581 q 1146 -556 1076 -603 q 1166 -551 1156 -549 q 1183 -562 1176 -553 q 1188 -582 1189 -571 q 1176 -599 1186 -593 q 1042 -644 1110 -644 q 997 -640 1019 -644 q 938 -619 968 -633 q 879 -579 908 -604 q 825 -530 850 -554 q 770 -465 800 -506 q 719 -396 740 -425 q 667 -316 699 -367 q 617 -236 635 -265 q 567 -151 600 -207 q 349 179 422 93 q 178 -636 200 -457 q 190 -608 183 -624 q 205 -594 194 -599 q 226 -594 215 -590 q 240 -609 236 -599 q 239 -631 243 -619 q 194 -719 211 -693 q 157 -744 176 -744 q 146 -743 151 -744 q 122 -700 124 -735 q 136 -553 119 -665 q 214 -167 160 -417 q 294 188 247 -15 q 250 189 271 188 q 86 257 133 197 q 79 331 54 297 q 250 326 121 383 q 318 285 283 311 q 449 831 363 474 q 547 1242 522 1138 q 558 1258 549 1253 q 578 1262 568 1264 q 595 1250 589 1260 q 599 1229 601 1240 q 500 818 575 1128 q 364 249 413 456 q 549 306 454 264 q 631 349 589 325 q 724 411 672 374 q 826 499 776 449 q 931 614 876 550 q 1037 763 985 678 q 1138 946 1089 847 q 1231 1170 1186 1044 q 1311 1436 1275 1296 q 1324 1453 1314 1447 q 1344 1456 1333 1458 q 1360 1443 1354 1453 q 1363 1424 1365 1433 m 149 272 q 286 240 201 239 q 228 278 257 265 q 124 299 150 311 q 149 272 128 286 z "},"L":{"ha":942,"x_min":46,"x_max":1125,"o":"m 1097 -217 q 1116 -224 1108 -217 q 1124 -243 1124 -232 q 1119 -256 1124 -250 q 1109 -266 1115 -262 q 1096 -269 1103 -269 q 983 -285 1046 -268 q 839 -342 919 -303 q 706 -409 758 -381 q 560 -489 653 -437 q 401 -577 454 -549 q 282 -632 349 -606 q 172 -658 215 -658 q 110 -640 135 -658 q 83 -428 46 -592 q 372 675 188 29 q 453 951 417 831 q 516 1151 490 1072 q 564 1283 542 1229 q 598 1363 586 1336 q 622 1401 610 1389 q 640 1415 635 1414 q 656 1414 646 1415 q 686 1375 681 1411 q 685 1264 692 1339 q 675 1246 683 1253 q 656 1240 667 1239 q 637 1249 644 1240 q 631 1268 629 1257 q 635 1314 633 1293 q 413 619 563 1149 q 136 -440 235 -7 q 142 -597 106 -569 q 167 -606 151 -604 q 203 -601 182 -607 q 246 -590 225 -596 q 299 -568 267 -583 q 353 -542 331 -553 q 413 -510 375 -531 q 472 -477 451 -489 q 533 -443 493 -465 q 652 -376 611 -399 q 766 -317 693 -354 q 888 -262 839 -281 q 994 -229 936 -243 q 1097 -217 1051 -215 z "},"M":{"ha":1760,"x_min":-21,"x_max":1744,"o":"m 1739 1199 q 1720 925 1744 1114 q 1670 585 1696 736 q 1592 149 1644 433 q 1478 -610 1474 -503 q 1490 -589 1483 -600 q 1506 -576 1496 -579 q 1526 -579 1517 -574 q 1539 -595 1536 -585 q 1536 -615 1542 -606 q 1497 -670 1515 -651 q 1454 -681 1478 -689 q 1433 -660 1440 -675 q 1425 -608 1426 -646 q 1429 -515 1424 -569 q 1450 -362 1435 -460 q 1486 -144 1465 -264 q 1540 157 1507 -25 q 1616 583 1590 433 q 1666 923 1642 732 q 1686 1194 1690 1114 q 1658 1274 1681 1271 q 1657 1274 1658 1274 q 1633 1264 1647 1274 q 1594 1229 1618 1254 q 1542 1166 1569 1204 q 1476 1065 1514 1128 q 1399 921 1439 1001 q 992 -178 1188 499 q 980 -194 989 -189 q 960 -197 971 -199 q 944 -185 950 -194 q 939 -167 938 -176 q 1043 693 1036 406 q 1041 810 1044 760 q 1033 883 1038 860 q 1020 922 1028 907 q 1010 940 1013 938 q 1004 943 1007 942 q 919 869 978 947 q 664 386 815 732 q 435 -202 549 122 q 233 -837 321 -526 q 233 -839 233 -837 q 223 -864 226 -856 q 214 -883 219 -872 q 201 -899 208 -894 q 186 -903 194 -903 q 176 -901 182 -903 q 156 -872 158 -896 q 163 -800 154 -847 q 196 -612 172 -735 q 318 -37 238 -403 q 549 976 449 557 q 563 1049 557 1015 q 570 1106 568 1082 q 571 1148 572 1129 q 567 1178 569 1167 q 562 1197 565 1189 q 555 1208 558 1206 q 549 1214 551 1211 q 431 1168 517 1235 q 351 1094 392 1138 q 271 1000 310 1051 q 197 892 232 949 q 136 777 163 835 q 92 663 110 719 q 73 556 75 606 q 83 465 71 507 q 314 343 124 346 q 327 340 321 343 q 337 330 333 336 q 340 315 340 324 q 332 297 340 304 q 314 289 324 289 l 313 289 q 231 297 269 290 q 151 321 192 304 q 78 370 110 338 q 32 449 47 403 q 118 861 -19 604 q 250 1060 175 965 q 399 1211 325 1154 q 578 1258 514 1300 q 600 964 658 1207 q 432 230 540 710 q 263 -553 324 -250 q 615 408 428 -22 q 699 590 658 507 q 770 732 739 674 q 831 835 801 790 q 882 908 861 881 q 924 956 903 936 q 957 983 944 975 q 983 994 969 992 q 1003 997 997 997 q 1017 994 1008 996 q 1044 981 1032 992 q 1069 947 1057 971 q 1088 885 1081 922 q 1097 785 1094 847 q 1095 641 1099 722 q 1080 444 1092 560 q 1049 186 1068 328 q 1185 569 1115 390 q 1323 888 1256 747 q 1452 1128 1390 1028 q 1569 1280 1514 1229 q 1665 1326 1624 1331 q 1739 1199 1731 1319 z "},"N":{"ha":1554,"x_min":-8,"x_max":1461,"o":"m 1355 -333 q 1360 -331 1355 -333 q 1375 -334 1365 -329 q 1388 -349 1385 -339 q 1388 -371 1392 -360 q 1344 -437 1363 -418 q 1304 -450 1326 -457 q 1279 -426 1286 -444 q 1275 -346 1272 -407 q 1290 -192 1278 -285 q 1328 78 1301 -99 q 1367 351 1353 254 q 1394 584 1381 449 q 1404 797 1407 719 q 1333 972 1400 964 q 1171 876 1276 981 q 935 544 1065 772 q 406 -794 636 28 q 404 -796 404 -794 q 395 -820 399 -812 q 386 -838 392 -828 q 374 -853 381 -849 q 358 -858 367 -858 q 349 -856 354 -858 q 328 -825 331 -850 q 335 -750 326 -800 q 371 -550 346 -681 q 499 64 414 -325 q 740 1136 646 740 q 758 1257 757 1208 q 753 1319 760 1306 q 740 1338 747 1332 q 690 1333 725 1346 q 601 1279 654 1321 q 396 1072 504 1204 q 202 796 288 939 q 74 513 117 653 q 58 289 31 372 q 256 179 94 182 q 274 171 267 179 q 282 151 282 163 q 274 133 282 140 q 256 125 267 125 q 7 272 56 129 q -6 360 -6 311 q 4 459 -7 408 q 32 560 15 510 q 72 660 49 610 q 116 749 96 710 q 160 826 136 789 q 359 1111 247 976 q 568 1322 471 1246 q 768 1382 701 1425 q 792 1124 842 1335 q 613 335 732 869 q 431 -521 494 -199 q 626 23 522 -231 q 828 461 729 276 q 1021 778 926 646 q 1197 972 1115 910 q 1340 1026 1278 1033 q 1458 799 1453 1011 q 1447 582 1460 719 q 1420 347 1433 444 q 1381 71 1407 249 q 1328 -369 1329 -286 q 1340 -346 1333 -358 q 1355 -333 1344 -336 z "},"O":{"ha":1276,"x_min":28,"x_max":1201,"o":"m 1018 1218 q 1127 1044 1085 1156 q 1185 785 1169 932 q 1176 452 1201 639 q 1085 71 1151 265 q 932 -276 1018 -125 q 757 -515 846 -426 q 581 -649 668 -604 q 414 -693 494 -693 q 333 -682 371 -693 q 176 -562 240 -653 q 86 -332 113 -472 q 160 457 28 -19 q 214 624 183 542 q 284 786 244 706 q 368 931 324 867 q 466 1042 413 994 q 575 1108 519 1090 q 624 1119 600 1117 q 792 1268 701 1232 q 1018 1218 914 1317 m 1035 88 q 1122 451 1097 272 q 1133 770 1146 631 q 1081 1016 1119 910 q 982 1179 1042 1122 q 811 1218 901 1254 q 688 1115 747 1193 q 782 1068 736 1104 q 792 1050 790 1061 q 786 1031 793 1039 q 769 1021 779 1022 q 749 1026 758 1019 q 654 1065 701 1063 q 470 560 546 894 q 372 -276 394 225 q 364 -295 372 -287 q 344 -302 356 -303 q 326 -293 333 -301 q 319 -275 318 -285 q 368 281 332 26 q 458 731 404 536 q 585 1056 513 925 q 379 849 481 1015 q 211 443 278 683 q 137 86 158 253 q 124 -201 115 -81 q 163 -414 132 -322 q 240 -558 193 -506 q 349 -631 288 -611 q 513 -621 424 -654 q 693 -503 601 -587 q 875 -265 785 -418 q 1035 88 965 -112 z "},"P":{"ha":1225,"x_min":42,"x_max":1388,"o":"m 1261 1350 q 1326 1287 1299 1325 q 1370 1190 1353 1249 q 1378 1042 1388 1131 q 1329 843 1368 953 q 990 288 1201 489 q 816 163 906 207 q 646 118 726 118 q 629 119 638 118 q 450 239 503 128 q 249 -685 275 -487 q 254 -672 251 -679 q 269 -658 258 -662 q 289 -659 279 -654 q 303 -674 299 -664 q 303 -694 307 -685 q 260 -776 276 -751 q 225 -800 243 -800 q 214 -797 219 -800 q 190 -758 193 -790 q 206 -619 188 -725 q 279 -257 226 -493 q 515 732 344 35 q 646 1271 613 1131 q 319 1071 456 1190 q 206 949 250 1010 q 144 840 161 888 q 124 744 126 792 q 130 666 122 697 q 151 606 138 635 q 153 585 157 596 q 140 570 150 575 q 120 569 131 565 q 104 582 110 572 q 90 843 43 704 q 283 1111 136 982 q 661 1335 443 1250 q 672 1385 667 1363 q 683 1401 674 1394 q 703 1405 693 1407 q 720 1393 714 1403 q 724 1372 726 1383 q 721 1357 722 1368 q 790 1378 756 1368 q 1060 1411 939 1418 q 1261 1350 1182 1404 m 1278 861 q 1308 957 1296 911 q 1324 1056 1319 1003 q 1323 1153 1329 1110 q 1294 1238 1317 1197 q 1231 1307 1271 1279 q 1051 1358 1163 1353 q 804 1326 939 1363 q 706 1294 756 1313 q 568 719 674 1151 q 471 325 506 468 q 483 308 481 319 q 535 211 497 246 q 632 172 574 176 q 788 208 703 168 q 954 326 872 249 q 1278 861 1156 518 z "},"Q":{"ha":1268,"x_min":51,"x_max":1429,"o":"m 1390 -511 q 1422 -558 1415 -543 q 1424 -586 1429 -574 q 1400 -603 1417 -601 q 1396 -604 1397 -604 q 1360 -586 1385 -604 q 1235 -477 1335 -568 q 961 -217 1135 -386 q 904 -161 933 -189 q 735 -339 825 -274 q 493 -424 618 -424 q 382 -404 436 -424 q 177 -239 260 -362 q 73 76 94 -115 q 126 511 51 268 q 302 872 186 703 q 564 1119 418 1042 q 782 1322 663 1285 q 1015 1250 910 1363 q 1119 1067 1079 1182 q 1168 813 1160 953 q 1051 124 1190 486 q 933 -115 1000 -10 q 1350 -510 1231 -407 q 1353 -507 1351 -508 q 1373 -501 1363 -500 q 1390 -511 1383 -503 m 399 -354 q 640 -335 518 -396 q 865 -122 763 -274 q 554 192 572 165 q 549 213 547 201 q 560 230 551 224 q 581 234 569 236 q 597 224 592 232 q 894 -76 624 190 q 1001 142 954 21 q 1085 424 1056 283 q 1117 683 1114 565 q 1105 906 1121 801 q 1056 1087 1089 1010 q 976 1214 1024 1164 q 797 1271 894 1301 q 651 1157 721 1247 q 656 1158 654 1157 q 1054 1051 863 1217 q 1063 1033 1063 1044 q 1057 1014 1064 1022 q 1039 1005 1050 1006 q 1019 1011 1028 1004 q 671 1107 849 1158 q 601 1079 636 1097 q 393 375 463 836 q 383 358 392 364 q 363 353 374 351 q 345 363 351 354 q 340 383 339 372 q 513 1024 400 778 q 315 794 403 938 q 178 496 226 650 q 157 -72 78 176 q 253 -252 190 -178 q 399 -354 317 -326 z "},"R":{"ha":1279,"x_min":22,"x_max":1413,"o":"m 1381 -331 q 1386 -330 1381 -331 q 1401 -336 1392 -329 q 1410 -354 1410 -343 q 1404 -375 1411 -365 q 1249 -465 1331 -465 q 1243 -465 1246 -465 q 1185 -453 1214 -465 q 1124 -416 1156 -442 q 1069 -367 1093 -390 q 1010 -297 1046 -343 q 954 -224 975 -251 q 893 -137 933 -196 q 802 -12 835 -57 q 714 97 769 32 q 608 206 658 163 q 442 186 524 185 q 246 -694 272 -507 q 256 -672 250 -685 q 270 -658 260 -662 q 291 -659 281 -654 q 305 -674 301 -664 q 304 -694 308 -685 q 280 -746 290 -726 q 260 -781 269 -765 q 241 -803 250 -796 q 222 -810 232 -810 q 211 -807 217 -810 q 193 -792 199 -803 q 188 -748 188 -782 q 199 -650 188 -714 q 233 -476 210 -586 q 293 -204 256 -367 q 388 190 331 -42 q 275 226 317 199 q 222 290 233 254 q 247 371 206 339 q 432 374 307 418 q 467 517 450 444 q 618 1144 586 1003 q 630 1162 621 1156 q 650 1165 639 1168 q 667 1153 661 1163 q 671 1133 672 1144 q 519 504 639 990 q 482 351 493 401 q 553 314 517 335 q 621 265 586 293 q 919 421 774 308 q 1176 722 1065 533 q 1286 1010 1265 872 q 1254 1233 1307 1147 q 953 1343 1175 1358 q 722 1297 843 1336 q 497 1197 601 1257 q 305 1060 392 1138 q 172 901 218 982 q 154 606 83 746 q 155 585 158 596 q 142 570 151 575 q 122 569 132 565 q 106 582 111 572 q 125 928 22 749 q 326 1149 192 1044 q 626 1319 460 1253 q 950 1397 792 1386 q 1299 1261 1204 1414 q 1340 1010 1360 1163 q 1222 694 1319 858 q 888 333 1092 472 q 669 222 782 260 q 767 117 715 179 q 851 12 819 54 q 936 -107 882 -31 q 1003 -199 981 -168 q 1064 -278 1025 -231 q 1128 -350 1103 -326 q 1186 -392 1154 -374 q 1244 -412 1218 -411 q 1364 -340 1303 -414 q 1381 -331 1371 -332 m 272 306 q 292 279 276 292 q 335 256 307 267 q 400 242 364 246 q 419 319 410 281 q 325 342 363 342 q 279 329 296 342 q 272 306 268 319 m 454 240 q 553 250 503 240 q 525 268 539 260 q 468 299 499 283 q 454 240 458 258 z "},"S":{"ha":1303,"x_min":53,"x_max":1364,"o":"m 1340 328 q 1345 327 1340 328 q 1357 317 1350 326 q 1362 298 1364 308 q 1350 281 1360 288 q 957 -11 1135 126 q 961 -136 975 -68 q 880 -356 939 -249 q 745 -543 821 -462 q 585 -686 669 -624 q 426 -782 501 -749 q 293 -819 350 -815 q 278 -821 285 -821 q 193 -771 211 -821 q 342 -483 161 -683 q 892 6 522 -283 q 728 147 850 82 q 342 318 606 211 q 231 364 269 347 q 92 476 131 406 q 82 639 53 547 q 257 892 118 756 q 560 1132 396 1029 q 892 1296 725 1235 q 1151 1336 1060 1357 q 1190 1323 1172 1332 q 1225 1296 1207 1314 q 1251 1247 1243 1278 q 1253 1172 1258 1215 q 1247 1160 1251 1165 q 1236 1151 1243 1154 q 1222 1150 1229 1149 q 1204 1160 1211 1151 q 1199 1181 1197 1169 q 1190 1254 1207 1232 q 1140 1283 1172 1276 q 1001 1275 1089 1296 q 806 1205 914 1254 q 588 1083 699 1156 q 286 847 408 971 q 133 624 164 724 q 251 413 88 481 q 363 368 289 397 q 499 312 454 331 q 615 262 543 293 q 726 208 688 231 q 811 157 765 186 q 886 99 857 128 q 935 39 915 71 q 1319 324 1110 175 q 1340 328 1329 331 m 910 -125 q 911 -47 918 -83 q 442 -456 615 -279 q 286 -641 340 -560 q 243 -753 232 -722 q 289 -767 249 -769 q 405 -732 336 -762 q 552 -643 474 -701 q 702 -510 631 -585 q 831 -334 774 -436 q 910 -125 888 -232 z "},"T":{"ha":753,"x_min":-8,"x_max":1801,"o":"m 1784 1622 q 1789 1619 1784 1622 q 1797 1606 1794 1617 q 1795 1586 1800 1596 q 1781 1572 1790 1576 q 1361 1444 1682 1542 q 803 1274 993 1333 q 619 475 757 1093 q 417 -418 478 -168 q 338 -724 368 -621 q 300 -831 314 -804 q 267 -858 286 -858 q 261 -858 264 -858 q 232 -817 236 -854 q 239 -644 228 -779 q 249 -626 240 -633 q 268 -621 257 -619 q 281 -625 275 -621 q 290 -636 288 -629 q 292 -650 293 -643 q 288 -706 289 -681 q 568 488 353 -478 q 743 1254 697 1071 q 517 1182 617 1215 q 61 1004 142 1057 q 72 978 75 994 q 46 956 68 956 q 40 957 43 956 q -7 997 -4 965 q 22 1042 -7 1019 q 139 1101 51 1065 q 469 1222 253 1150 q 1346 1496 735 1311 q 1764 1624 1665 1592 q 1784 1622 1774 1626 z "},"U":{"ha":1217,"x_min":42,"x_max":1250,"o":"m 1228 1336 q 1247 1314 1244 1332 q 1244 1278 1249 1296 q 1228 1197 1239 1250 q 1165 919 1213 1129 q 1081 547 1113 690 q 999 168 1049 403 q 919 -248 949 -67 q 879 -550 889 -429 q 878 -619 876 -589 q 883 -671 879 -649 q 892 -708 886 -693 q 903 -730 899 -722 q 913 -739 908 -737 q 928 -733 918 -740 q 956 -694 938 -725 q 990 -615 974 -664 q 1004 -599 994 -604 q 1024 -598 1014 -594 q 1040 -612 1035 -601 q 1040 -632 1044 -622 q 915 -793 985 -793 q 901 -792 908 -793 q 838 -716 858 -782 q 826 -546 818 -650 q 1076 772 853 -208 q 742 -22 913 294 q 592 -265 665 -162 q 449 -426 518 -367 q 317 -501 379 -486 q 167 -457 228 -522 q 76 96 43 -325 q 289 1090 110 517 q 301 1106 292 1101 q 322 1108 311 1111 q 338 1094 333 1104 q 340 1075 343 1085 q 190 504 244 768 q 126 57 135 240 q 137 -247 117 -126 q 206 -419 157 -368 q 304 -449 246 -462 q 444 -358 367 -433 q 611 -140 521 -283 q 794 202 701 4 q 987 680 886 400 q 1181 1289 1088 960 q 1181 1290 1181 1289 q 1192 1317 1188 1308 q 1206 1333 1196 1326 q 1228 1336 1215 1340 z "},"V":{"ha":1179,"x_min":58,"x_max":1481,"o":"m 1442 1358 q 1448 1359 1442 1358 q 1463 1356 1453 1361 q 1476 1341 1472 1351 q 1475 1321 1479 1331 q 1417 1207 1460 1292 q 850 142 1071 524 q 633 -210 729 -67 q 474 -422 538 -353 q 372 -517 411 -490 q 301 -543 332 -543 q 282 -540 292 -543 q 201 -314 199 -521 q 471 1036 206 -37 q 500 1156 493 1125 q 515 1235 511 1200 q 519 1290 519 1271 q 515 1322 518 1308 q 508 1338 511 1335 q 503 1343 506 1342 q 413 1306 479 1358 q 299 1190 357 1263 q 198 1038 242 1117 q 134 876 154 958 q 132 740 114 794 q 314 644 163 647 q 333 636 325 644 q 340 617 340 628 q 333 598 340 606 q 314 592 325 590 q 154 631 208 593 q 81 724 100 668 q 81 887 58 797 q 153 1067 103 976 q 265 1231 204 1157 q 381 1349 325 1306 q 532 1388 476 1424 q 553 1143 600 1343 q 524 1024 546 1113 q 254 -315 258 -44 q 257 -391 254 -358 q 265 -441 260 -424 q 276 -470 269 -458 q 286 -485 282 -482 q 294 -489 290 -487 q 303 -490 299 -489 q 316 -486 307 -490 q 335 -476 325 -482 q 363 -458 346 -471 q 397 -426 379 -444 q 440 -380 415 -408 q 492 -315 464 -351 q 804 169 619 -149 q 1369 1231 1025 549 q 1426 1344 1414 1318 q 1442 1358 1432 1354 z "},"W":{"ha":1610,"x_min":-8,"x_max":1650,"o":"m 1635 985 q 1609 711 1650 894 q 1492 326 1568 528 q 1299 -69 1417 125 q 1057 -362 1181 -264 q 893 -407 960 -440 q 833 -341 856 -389 q 800 -209 810 -293 q 788 -44 790 -125 q 789 165 786 36 q 776 440 792 404 q 721 360 757 422 q 251 -421 419 -176 q 122 -586 169 -539 q 44 -633 74 -633 q 25 -629 35 -633 q 3 -610 11 -622 q -6 -565 -4 -599 q 1 -476 -8 -531 q 37 -326 11 -422 q 104 -96 63 -229 q 439 836 219 264 q 497 982 469 915 q 546 1095 525 1049 q 586 1178 567 1142 q 619 1238 606 1215 q 645 1277 632 1261 q 666 1300 658 1293 q 683 1310 674 1307 q 695 1313 692 1313 q 706 1311 699 1313 q 733 1288 724 1307 q 744 1240 743 1269 q 742 1169 744 1210 q 733 1151 742 1158 q 714 1145 725 1144 q 696 1154 703 1146 q 689 1174 689 1163 q 689 1247 692 1222 q 489 817 625 1168 q 358 467 418 631 q 254 179 297 303 q 176 -50 211 56 q 120 -228 142 -156 q 83 -361 99 -301 q 60 -457 68 -421 q 49 -520 53 -493 q 47 -559 46 -547 q 49 -578 47 -571 q 226 -361 97 -554 q 675 386 392 -117 q 739 478 713 453 q 792 496 765 503 q 836 417 828 486 q 842 164 844 349 q 841 7 839 93 q 848 -155 843 -79 q 870 -287 853 -231 q 917 -358 888 -344 q 1024 -321 953 -376 q 1253 -40 1140 -228 q 1441 342 1367 147 q 1556 715 1515 538 q 1582 976 1596 892 q 1563 1017 1576 1013 q 1496 981 1543 1024 q 1476 974 1488 974 q 1458 983 1465 975 q 1451 1003 1450 992 q 1460 1021 1451 1014 q 1581 1068 1532 1085 q 1635 985 1624 1053 z "},"X":{"ha":1189,"x_min":-200,"x_max":1553,"o":"m 1524 1342 q 1543 1335 1535 1342 q 1551 1317 1551 1328 q 1546 1298 1553 1306 q 1529 1289 1539 1290 q 1253 1012 1488 1271 q 724 394 1019 753 q 575 211 649 303 q 588 168 586 174 q 679 -114 635 8 q 758 -310 724 -236 q 823 -431 792 -383 q 876 -497 854 -479 q 917 -518 897 -515 q 964 -508 946 -522 q 1008 -367 1001 -476 q 1017 -347 1008 -354 q 1036 -341 1025 -340 q 1055 -350 1047 -342 q 1061 -369 1063 -358 q 999 -549 1054 -504 q 929 -572 969 -572 q 908 -571 919 -572 q 858 -551 882 -567 q 798 -490 833 -536 q 726 -367 763 -443 q 640 -159 689 -292 q 536 153 590 -26 q 536 156 536 153 l 535 160 q 98 -419 268 -175 q -117 -772 -72 -662 q -129 -829 -132 -814 q -112 -828 -124 -831 q -92 -831 -101 -825 q -81 -847 -83 -836 q -83 -867 -78 -857 q -100 -879 -89 -876 q -126 -883 -114 -883 q -169 -864 -154 -883 q -160 -737 -199 -831 q 515 222 -53 -489 q 442 481 489 313 q 238 1113 279 1044 q 215 1111 226 1107 q 201 1125 206 1115 q 200 1146 196 1135 q 239 1175 213 1176 q 276 1150 258 1174 q 323 1048 293 1126 q 390 846 353 969 q 493 494 428 722 q 557 274 533 354 q 711 463 636 371 q 1235 1069 1001 814 q 1414 1258 1346 1193 q 1497 1332 1482 1324 q 1524 1342 1511 1340 z "},"Y":{"ha":1317,"x_min":60,"x_max":1353,"o":"m 1333 424 q 1338 422 1333 424 q 1347 410 1343 419 q 1347 390 1351 400 q 1333 375 1343 379 q 1035 239 1175 310 q 776 -510 931 -210 q 535 -856 664 -731 q 283 -987 406 -981 q 269 -989 276 -989 q 147 -945 197 -989 q 78 -824 96 -901 q 78 -656 61 -749 q 158 -447 94 -562 q 324 -213 221 -331 q 599 33 428 -96 q 989 275 771 161 q 1119 1100 1074 647 q 1125 1169 1124 1140 q 1076 1058 1111 1138 q 1013 914 1038 968 q 940 759 989 860 q 849 589 890 658 q 750 441 807 519 q 639 310 693 363 q 351 175 458 140 q 257 303 278 197 q 268 548 238 403 q 375 838 299 693 q 554 1069 451 983 q 574 1076 563 1076 q 592 1067 585 1075 q 598 1047 599 1058 q 589 1029 597 1036 q 424 814 496 950 q 322 542 351 678 q 310 313 292 406 q 368 225 325 239 q 601 349 444 201 q 690 447 646 390 q 776 572 735 503 q 849 700 817 642 q 919 839 882 758 q 976 963 957 919 q 1028 1079 996 1006 q 1106 1248 1086 1214 q 1153 1275 1126 1282 q 1179 1235 1175 1269 q 1172 1094 1183 1200 q 1050 306 1129 665 q 1313 424 1175 368 q 1333 424 1322 428 m 729 -485 q 972 206 872 -206 q 333 -286 558 -18 q 160 -567 214 -428 q 131 -812 106 -707 q 183 -906 144 -874 q 279 -935 222 -939 q 506 -809 386 -928 q 729 -485 625 -690 z "},"Z":{"ha":1110,"x_min":-142,"x_max":1107,"o":"m 744 392 q 943 297 894 406 q 882 -92 1003 163 q 744 -320 826 -208 q 567 -518 661 -432 q 135 -719 343 -719 q -57 -669 32 -719 q -121 -611 -101 -644 q -128 -554 -140 -578 q -18 -554 -103 -508 q -5 -570 -8 -560 q -7 -590 -1 -581 q -23 -603 -12 -600 q -43 -601 -33 -607 q -72 -589 -60 -592 q -32 -622 -58 -607 q 99 -664 31 -657 q 226 -656 168 -671 q 344 -609 283 -640 q 448 -547 406 -578 q 531 -478 490 -515 q 750 -218 653 -367 q 888 66 847 -69 q 894 275 928 201 q 750 339 861 349 q 440 254 650 329 q 376 231 394 238 q 336 221 357 225 q 307 221 315 217 q 293 236 299 225 q 299 275 282 254 q 367 338 315 296 q 801 751 567 500 q 912 886 865 822 q 983 999 958 950 q 1017 1088 1007 1047 q 1022 1156 1026 1129 q 1003 1200 1018 1183 q 915 1238 976 1233 q 751 1206 854 1242 q 529 1094 649 1171 q 331 881 401 1013 q 285 639 260 749 q 281 619 288 628 q 265 607 275 610 q 244 610 254 604 q 232 626 235 615 q 280 901 203 754 q 500 1139 357 1047 q 834 1283 686 1257 q 1044 1235 982 1310 q 1051 1023 1106 1161 q 840 715 997 885 q 401 297 603 461 q 422 304 410 300 q 744 392 639 381 z "},"[":{"ha":464,"x_min":68,"x_max":518,"o":"m 458 943 q 489 944 478 943 q 508 937 500 944 q 517 918 517 929 q 510 899 518 907 q 492 890 503 890 q 460 889 479 890 q 381 878 399 888 q 349 825 364 869 q 289 585 328 764 q 214 215 250 407 q 150 -145 178 24 q 122 -360 122 -314 q 153 -360 135 -361 q 190 -354 172 -358 q 219 -346 208 -350 q 240 -346 231 -342 q 255 -360 250 -350 q 256 -380 260 -369 q 240 -394 251 -390 q 136 -414 197 -414 q 90 -407 107 -414 q 72 -390 76 -401 q 71 -336 68 -379 q 86 -204 74 -293 q 153 176 108 -56 q 299 842 253 710 q 315 883 306 865 q 337 910 324 900 q 360 927 350 921 q 390 937 371 933 q 420 941 408 940 q 458 943 432 942 z "},"\\":{"ha":596,"x_min":29,"x_max":428,"o":"m 425 -115 q 426 -129 426 -122 q 420 -142 425 -136 q 408 -150 415 -147 q 400 -151 404 -151 q 375 -135 381 -151 q 244 232 325 -4 q 32 826 132 563 q 31 840 31 833 q 37 853 32 847 q 47 861 42 858 q 68 860 58 865 q 82 846 78 856 q 296 250 182 582 q 425 -115 375 14 z "},"]":{"ha":513,"x_min":-26,"x_max":447,"o":"m 413 967 q 442 897 438 943 q 435 783 446 850 q 214 -231 392 478 q 175 -318 200 -285 q 109 -369 150 -351 q 4 -390 68 -386 q 1 -390 3 -390 q -16 -383 -8 -390 q -25 -365 -24 -376 q -19 -346 -26 -354 q 0 -337 -11 -337 q 115 -304 82 -331 q 163 -218 147 -278 q 382 790 340 488 q 376 928 399 907 q 254 924 356 946 q 234 928 243 922 q 223 944 225 933 q 226 965 221 956 q 243 976 232 974 q 345 990 301 990 q 413 967 389 989 z "},"^":{"ha":449,"x_min":69,"x_max":382,"o":"m 378 614 q 375 593 381 603 q 359 581 369 583 q 339 584 349 578 q 326 600 329 590 q 276 764 293 732 q 210 709 260 763 q 119 588 160 656 q 96 574 113 574 q 77 582 85 574 q 69 601 69 590 q 133 701 69 618 q 251 811 204 793 q 315 800 290 826 q 378 614 338 778 z "},"_":{"ha":661,"x_min":68,"x_max":593,"o":"m 564 -42 q 583 -49 575 -42 q 592 -68 592 -57 q 590 -76 592 -72 q 587 -84 589 -81 q 581 -90 585 -87 q 574 -93 578 -92 q 565 -96 569 -94 q 442 -96 556 -96 q 97 -96 126 -94 q 96 -97 97 -97 q 78 -90 86 -97 q 69 -71 69 -82 q 76 -52 69 -60 q 94 -43 83 -44 q 442 -42 125 -42 q 564 -42 556 -42 z "},"`":{"ha":251,"x_min":67,"x_max":185,"o":"m 179 640 q 180 620 183 631 q 167 604 176 610 q 154 601 161 601 q 131 617 139 601 l 72 732 q 70 752 67 742 q 84 767 74 763 q 105 769 94 772 q 119 756 115 765 l 179 640 z "},"a":{"ha":517,"x_min":-37,"x_max":600,"o":"m 562 310 q 567 312 562 310 q 582 309 572 314 q 595 294 592 304 q 594 274 599 283 q 329 -33 446 -33 q 314 -32 322 -33 q 199 218 221 -14 q 78 68 131 126 q -3 33 31 18 q -35 106 -36 46 q -12 225 -35 156 q 53 360 10 294 q 146 442 96 425 q 282 393 219 468 q 288 374 289 385 q 279 356 288 363 q 260 349 271 349 q 242 358 249 350 q 143 381 193 417 q 48 235 86 340 q 18 86 10 131 q 38 104 26 93 q 174 275 93 164 q 199 310 192 300 q 228 319 210 324 q 247 294 246 314 q 258 174 250 226 q 275 94 267 121 q 294 49 283 67 q 312 26 306 31 q 325 21 318 21 q 374 40 344 17 q 451 128 404 63 q 546 296 497 194 q 562 310 551 307 z "},"b":{"ha":522,"x_min":-92,"x_max":601,"o":"m 566 315 q 571 316 566 315 q 586 311 576 317 q 599 294 596 306 q 594 275 601 283 q 463 109 539 185 q 306 -17 386 33 q 160 -99 225 -68 q 31 -153 96 -131 q 0 -142 11 -160 q -39 -251 -22 -197 q -65 -269 -44 -269 q -69 -269 -67 -269 q -85 -260 -79 -268 q -92 -243 -92 -253 q -24 88 -90 -211 q 108 671 42 386 q 110 679 108 675 q 149 840 133 779 q 258 1167 196 1032 q 364 1311 319 1303 q 400 1297 388 1315 q 365 1083 431 1257 q 161 660 300 910 q 19 36 86 344 q 94 167 58 117 q 267 299 203 318 q 310 225 308 286 q 301 159 310 196 q 271 78 292 122 q 221 -7 250 33 q 550 303 438 121 q 566 315 556 313 m 354 1235 q 213 872 279 1124 q 354 1235 333 1117 m 15 -101 q 109 -48 65 -83 q 181 29 153 -12 q 227 110 210 71 q 251 185 244 150 q 251 247 261 233 q 237 242 246 247 q 200 210 228 238 q 139 136 172 183 q 15 -101 79 53 z "},"c":{"ha":411,"x_min":-47,"x_max":474,"o":"m 439 319 q 444 321 439 319 q 459 316 450 322 q 471 299 468 310 q 467 279 474 288 q 387 160 421 208 q 310 56 353 111 q 231 -31 267 1 q 157 -85 196 -64 q 83 -107 118 -107 q 58 -104 71 -107 q -18 -46 8 -93 q -42 91 -46 17 q -12 238 -39 165 q 58 356 15 314 q 138 385 100 397 q 153 377 146 382 q 169 358 160 372 q 179 319 179 343 q 171 258 179 296 q 159 242 168 247 q 139 239 150 236 q 122 251 128 242 q 119 271 117 261 q 121 335 133 324 q 103 326 115 335 q 72 290 92 318 q 38 218 53 261 q 10 85 13 153 q 29 -19 8 18 q 69 -51 43 -46 q 123 -44 93 -57 q 187 1 153 -32 q 249 65 221 33 q 313 148 276 96 q 369 228 350 200 q 422 308 389 257 q 439 319 428 317 z "},"d":{"ha":435,"x_min":-39,"x_max":631,"o":"m 593 1160 q 557 904 629 1124 q 542 858 551 888 q 492 710 511 765 q 431 554 472 654 q 340 363 389 454 q 264 -46 300 171 q 197 -549 201 -417 q 219 -549 208 -544 q 233 -565 229 -554 q 232 -585 236 -575 q 182 -637 207 -637 q 171 -636 176 -637 q 149 -616 156 -631 q 144 -555 143 -601 q 156 -418 144 -508 q 211 -37 172 -274 q 257 214 233 92 q 165 75 214 144 q 6 -21 74 -58 q -37 92 -39 11 q 3 257 -36 174 q 111 400 49 354 q 222 431 174 446 q 278 358 271 417 q 290 381 285 369 q 438 941 364 729 q 560 1168 513 1153 q 593 1160 579 1175 m 122 106 q 242 294 188 200 q 225 322 221 301 q 207 381 231 374 q 199 381 204 381 q 127 342 169 381 q 51 233 85 304 q 22 140 29 188 q 18 62 14 92 q 33 26 22 32 q 47 27 38 24 q 76 51 56 31 q 122 106 97 71 m 506 921 q 546 1065 533 1006 q 400 619 478 922 q 490 874 439 714 q 506 921 500 904 z "},"e":{"ha":404,"x_min":-43,"x_max":483,"o":"m 450 315 q 456 316 450 315 q 470 310 461 317 q 481 293 479 304 q 476 274 482 282 q 190 -37 319 54 q 89 -74 139 -74 q 21 -53 50 -74 q -9 -19 4 -40 q -32 39 -22 1 q -35 138 -42 76 q -4 276 -29 199 l -4 278 q 90 478 35 404 q 190 553 146 551 q 232 525 222 554 q 196 411 247 485 q 44 253 144 338 q 21 153 28 199 q 16 80 14 107 q 26 33 18 53 q 40 4 33 13 q 53 -10 46 -4 q 160 7 94 -40 q 432 304 282 93 q 450 315 439 313 m 181 494 q 85 363 132 464 q 181 494 165 443 z "},"f":{"ha":315,"x_min":-201,"x_max":381,"o":"m 282 368 q 302 363 293 369 q 313 344 311 356 q 307 325 314 333 q 289 315 300 317 q 100 293 188 301 q -50 -375 19 -39 q -140 -856 -119 -711 q -136 -856 -139 -856 q -122 -870 -126 -860 q -121 -890 -117 -881 q -134 -926 -129 -914 q -149 -949 -139 -937 q -169 -960 -158 -960 q -178 -958 -174 -960 q -199 -922 -199 -953 q -181 -767 -200 -890 q -104 -375 -156 -617 q 44 289 -36 -43 q -67 279 -3 285 q -69 279 -68 279 q -82 283 -76 279 q -91 292 -87 286 q -96 304 -94 297 q -89 324 -96 315 q -71 333 -82 332 q 57 343 7 339 q 124 606 93 488 q 152 706 136 654 q 194 831 168 758 q 251 952 221 904 q 310 1004 282 1000 q 347 988 333 1008 q 313 768 381 938 q 132 418 246 599 q 131 415 131 417 q 114 349 124 389 q 282 368 189 356 m 303 931 q 178 603 242 839 q 303 931 289 811 z "},"g":{"ha":572,"x_min":-361,"x_max":643,"o":"m 620 319 q 625 318 620 319 q 637 308 631 317 q 641 288 643 299 q 629 271 639 276 q 236 -14 379 108 q 32 -817 149 -542 q -196 -1122 -85 -1092 q -225 -1126 -211 -1126 q -301 -1087 -269 -1126 q -344 -847 -361 -1012 q -224 -483 -325 -669 q 186 14 -75 -215 q 222 261 206 132 q 140 144 178 194 q 40 81 82 68 q 1 142 7 90 q 16 267 -3 190 q 78 419 35 344 q 172 519 121 494 q 310 496 243 556 q 319 477 318 488 q 312 458 319 467 q 293 449 304 450 q 274 456 282 449 q 172 456 224 501 q 79 288 114 403 q 57 135 44 174 q 97 176 72 144 q 240 389 186 293 q 272 401 251 407 q 290 372 293 394 q 249 67 271 213 q 600 315 378 172 q 620 319 610 322 m -211 -1071 q -130 -1004 -174 -1061 q -35 -837 -86 -947 q 72 -529 17 -728 q 172 -72 126 -331 q -176 -510 -47 -275 q -245 -660 -218 -585 q -283 -796 -272 -735 q -294 -909 -294 -857 q -285 -997 -294 -961 q -260 -1054 -275 -1033 q -211 -1071 -239 -1079 z "},"h":{"ha":599,"x_min":-92,"x_max":674,"o":"m 638 321 q 643 322 638 321 q 658 318 649 324 q 669 301 667 313 q 667 281 672 290 q 579 149 621 207 q 508 56 538 92 q 450 -3 478 21 q 406 -38 422 -28 q 372 -52 389 -49 q 349 -55 356 -56 q 335 -53 343 -54 q 261 96 269 -36 q 254 145 260 125 q 244 172 249 165 q 238 178 240 178 q 236 178 236 178 q 206 160 225 178 q 158 104 186 143 q 100 10 131 65 q 33 -131 69 -46 q -39 -314 -4 -215 q -64 -332 -44 -332 q -69 -332 -67 -332 q -81 -326 -76 -331 q -89 -316 -86 -322 q -90 -304 -92 -310 q -17 62 -87 -247 q 98 559 53 371 q 168 847 143 747 q 277 1174 215 1039 q 383 1318 339 1310 q 419 1304 407 1322 q 384 1089 450 1263 q 179 664 318 915 q 14 -43 72 224 q 135 162 75 86 q 244 231 194 238 q 314 100 307 222 q 347 0 321 7 q 359 0 351 -1 q 390 17 367 1 q 442 62 414 32 q 517 156 469 92 q 621 310 565 219 q 638 321 626 318 m 374 1240 q 231 878 297 1131 q 374 1240 353 1124 z "},"i":{"ha":351,"x_min":-40,"x_max":422,"o":"m 387 319 q 392 321 387 319 q 407 317 397 322 q 419 300 417 311 q 415 279 421 289 q 322 152 376 218 q 198 33 267 86 q 82 -19 129 -19 q 53 -14 65 -19 q 33 313 -40 26 q 46 329 36 324 q 66 332 56 335 q 82 319 76 329 q 85 300 88 310 q 60 183 68 233 q 53 106 53 132 q 59 62 54 79 q 67 41 64 44 q 74 36 71 38 q 205 108 110 21 q 369 308 300 196 q 387 319 376 317 m 79 428 q 54 461 39 431 q 90 494 68 486 q 132 476 125 506 q 111 435 139 449 q 79 428 97 428 z "},"j":{"ha":372,"x_min":-499,"x_max":443,"o":"m 419 315 q 425 314 419 315 q 437 303 431 313 q 440 283 443 294 q 429 267 438 272 q 26 -51 183 107 q -154 -847 -56 -540 q -376 -1237 -268 -1207 q -397 -1240 -387 -1240 q -453 -1211 -429 -1240 q -495 -1047 -492 -1162 q -459 -774 -499 -931 q -343 -471 -419 -618 q -24 -25 -212 -219 q 38 375 8 164 q 47 392 39 385 q 67 397 56 399 q 85 387 78 396 q 90 367 92 378 q 42 38 67 194 q 400 311 185 171 q 419 315 408 317 m -204 -831 q -40 -122 -117 -557 q -296 -496 -189 -289 q -392 -730 -356 -611 q -436 -937 -428 -849 q -437 -1089 -444 -1025 q -411 -1178 -431 -1153 q -392 -1186 -401 -1189 q -376 -1178 -385 -1183 q -349 -1149 -368 -1172 q -310 -1092 -329 -1126 q -262 -988 -290 -1057 q -204 -831 -233 -919 m 74 578 q 49 608 33 579 q 86 642 61 633 q 126 625 119 653 q 106 583 133 597 q 74 578 92 576 z "},"k":{"ha":542,"x_min":-114,"x_max":614,"o":"m 578 316 q 583 317 578 316 q 598 313 589 318 q 610 296 607 307 q 607 276 613 285 q 393 33 529 150 q 163 -85 257 -85 q 142 -83 151 -85 q 60 13 75 -71 q 65 35 57 25 q 97 67 72 46 q 172 142 149 111 q 200 188 189 164 q 214 228 211 213 q 214 254 217 244 q 131 161 182 242 q 55 15 93 103 q -3 -131 17 -72 q -54 -290 -22 -189 l -61 -310 q -86 -328 -67 -328 q -90 -328 -89 -328 q -102 -323 -97 -326 q -110 -313 -107 -319 q -112 -300 -112 -307 q -41 53 -112 -269 q 100 672 31 375 q 101 679 101 675 q 140 842 126 783 q 249 1168 188 1033 q 357 1313 311 1303 q 393 1297 379 1317 q 398 1222 408 1279 q 357 1083 388 1165 q 274 892 326 1001 q 153 660 221 783 q 17 63 85 372 q 85 190 50 136 q 221 308 164 313 q 261 278 250 306 q 261 201 275 249 q 214 108 247 153 q 132 26 188 75 q 115 11 119 15 q 151 -31 125 -25 q 345 63 214 -42 q 561 304 476 167 q 578 316 567 314 m 346 1235 q 204 872 271 1125 q 346 1235 325 1118 z "},"l":{"ha":211,"x_min":-140,"x_max":439,"o":"m 408 1301 q 380 1098 438 1258 q 193 732 322 938 q 190 729 192 731 q 23 -1 103 379 q -79 -542 -57 -381 q -76 -542 -78 -542 q -60 -556 -65 -546 q -60 -576 -56 -565 q -73 -612 -68 -600 q -87 -635 -78 -624 q -108 -646 -97 -646 q -118 -644 -112 -646 q -139 -606 -137 -637 q -119 -453 -140 -575 q -44 -61 -94 -303 q 185 919 71 489 q 206 995 194 956 q 238 1094 217 1035 q 278 1199 258 1154 q 324 1280 299 1244 q 371 1318 349 1315 q 408 1301 394 1322 m 239 915 q 364 1244 350 1125 q 239 915 303 1153 z "},"m":{"ha":724,"x_min":-54,"x_max":794,"o":"m 764 317 q 769 318 764 317 q 783 311 775 318 q 792 293 792 304 q 786 274 793 282 q 507 106 610 67 q 428 282 433 133 q 367 161 408 246 q 335 96 343 110 q 257 38 299 26 q 201 197 200 51 q 203 263 201 225 q 15 -51 111 132 q -21 -83 -1 -83 q -34 -80 -28 -83 q -44 -74 -40 -76 q -51 -58 -47 -71 q -52 -26 -54 -46 q -43 31 -50 -7 q -22 121 -36 68 q 85 439 22 299 q 99 454 89 450 q 120 453 110 458 q 134 438 131 449 q 133 418 138 428 q 19 69 64 261 q 192 340 103 217 q 235 360 211 368 q 254 337 251 354 q 256 268 257 319 q 254 197 254 225 q 269 93 254 124 q 289 121 278 101 q 319 183 296 135 q 401 340 376 303 q 453 371 426 376 q 482 310 482 364 q 526 156 481 174 q 611 181 554 146 q 746 308 668 217 q 764 317 753 317 z "},"n":{"ha":496,"x_min":-64,"x_max":575,"o":"m 539 313 q 544 314 539 313 q 560 310 550 315 q 572 294 569 304 q 569 274 575 283 q 488 142 522 190 q 417 65 453 93 q 346 42 381 38 q 236 192 276 50 q 186 288 207 288 q 174 284 182 289 q 150 259 167 279 q 113 204 133 239 q 60 101 93 169 q -10 -60 28 33 q -35 -76 -17 -76 q -40 -75 -37 -76 q -61 -46 -64 -69 q 43 378 -47 68 q 57 426 53 410 q 71 442 61 438 q 91 444 81 447 q 107 432 101 442 q 108 411 113 422 q 94 363 106 401 q 47 196 64 256 q 125 311 92 279 q 189 342 158 343 q 247 304 225 340 q 288 206 268 268 q 353 94 318 99 q 394 113 369 92 q 446 176 418 135 q 488 240 474 217 q 522 300 503 264 q 539 313 528 310 z "},"o":{"ha":444,"x_min":-29,"x_max":515,"o":"m 483 308 q 489 309 483 308 q 503 303 494 310 q 514 285 513 296 q 508 265 515 274 q 372 150 451 192 q 224 124 293 108 q 169 49 204 76 q 97 22 135 22 l 96 22 q 30 48 58 24 q -10 115 1 72 q -3 245 -28 183 q 67 336 21 307 q 89 339 76 343 q 124 386 101 369 q 172 399 147 403 q 198 387 186 396 q 222 358 210 378 q 239 299 233 339 q 242 203 244 258 q 238 175 240 189 q 355 201 290 164 q 465 299 419 239 q 483 308 472 307 m 97 76 q 138 94 117 76 q 174 143 160 113 q 79 279 83 193 q 41 208 51 253 q 42 131 31 164 q 97 76 57 76 m 188 206 q 188 263 190 239 q 183 303 186 288 q 176 328 181 318 q 169 342 172 338 q 164 346 165 346 l 163 346 q 149 337 157 346 q 136 313 140 328 q 139 253 128 283 q 188 197 150 222 q 188 206 188 201 z "},"p":{"ha":419,"x_min":-193,"x_max":368,"o":"m 297 515 q 353 449 339 503 q 349 325 367 396 q 185 99 315 203 q 65 21 131 54 q -47 -487 15 -183 q -137 -967 -108 -790 q -164 -989 -142 -989 q -168 -989 -167 -989 q -181 -983 -175 -987 q -189 -972 -186 -979 q -190 -958 -192 -965 q -31 -19 -154 -715 q -64 -29 -47 -25 q -85 -28 -75 -33 q -97 -11 -94 -22 q -94 10 -100 0 q -78 22 -89 19 q -21 42 -50 29 q 6 186 -11 90 q 79 610 78 592 q 87 628 79 621 q 104 636 94 636 q 124 630 115 638 q 133 611 132 622 q 68 233 133 600 q 110 339 89 292 q 151 417 132 386 q 189 468 169 447 q 224 499 208 489 q 253 515 239 510 q 278 519 268 519 q 297 515 289 518 m 297 339 q 303 426 310 393 q 282 464 297 460 q 278 465 281 465 q 259 459 269 465 q 232 435 249 453 q 198 391 215 418 q 159 317 181 364 q 117 208 138 269 q 83 92 103 167 q 220 204 163 140 q 297 339 278 268 z "},"q":{"ha":438,"x_min":-46,"x_max":503,"o":"m 465 303 q 470 305 465 303 q 485 302 475 307 q 499 287 494 297 q 497 267 503 276 q 290 -361 461 188 q 132 -857 178 -721 q 74 -1022 96 -967 q 45 -1081 57 -1064 q 17 -1099 33 -1099 q 10 -1099 14 -1099 q -15 -1064 -11 -1093 q -11 -999 -18 -1035 q 69 -508 -6 -956 q 186 176 143 -60 q 92 61 136 110 q -12 25 31 -4 q -39 72 -33 39 q -37 145 -44 106 q -11 225 -29 185 q 106 368 29 315 q 282 394 182 421 q 299 383 293 392 q 301 363 304 374 q 295 350 300 356 q 283 343 290 344 q 269 343 276 342 q 206 349 236 354 q 152 333 175 343 q 109 305 129 324 q 77 270 89 286 q 54 236 65 254 q 22 163 33 201 q 12 103 11 125 q 17 69 13 82 q 53 99 29 74 q 185 264 106 156 q 213 303 206 292 q 245 310 226 319 q 260 281 264 301 q 56 -915 199 -29 q 239 -346 106 -772 q 449 289 411 207 q 465 303 454 299 z "},"r":{"ha":554,"x_min":-11,"x_max":628,"o":"m 590 316 q 595 318 590 316 q 610 315 600 319 q 624 299 619 310 q 622 279 628 289 q 538 114 585 199 q 434 -58 490 29 q 322 -199 378 -144 q 228 -254 267 -254 q 210 -250 218 -254 q 174 -78 153 -228 q 276 319 193 63 q 274 319 275 319 q 272 318 274 318 q 222 286 242 297 q 167 261 201 275 q 103 249 133 247 q 46 268 72 250 q -8 372 -7 306 q 42 518 -10 439 q 119 606 74 568 q 196 622 164 643 q 219 586 215 611 q 194 490 222 561 q 101 303 167 418 q 243 363 144 297 q 270 380 261 375 q 291 390 279 385 q 311 394 303 396 q 328 388 319 393 q 335 329 349 371 q 225 -193 196 -101 q 229 -201 228 -199 q 263 -183 240 -203 q 320 -122 286 -164 q 394 -22 354 -81 q 481 121 433 36 q 574 301 529 206 q 590 316 579 313 m 50 410 q 56 332 38 361 q 164 571 157 508 q 126 539 147 561 q 81 481 104 517 q 50 410 58 446 z "},"s":{"ha":560,"x_min":-31,"x_max":629,"o":"m 599 325 q 604 326 599 325 q 618 319 610 326 q 628 300 626 311 q 621 281 629 289 q 313 -82 351 -33 q 267 -142 289 -112 q 269 -294 286 -221 q 222 -421 253 -368 q 150 -507 192 -474 q 78 -540 111 -540 q 43 -526 57 -540 q 208 -131 -31 -456 q 160 -28 193 -78 q 57 146 90 76 q 26 272 24 215 q 56 372 29 328 q 129 444 83 417 q 211 472 168 468 q 290 460 254 476 q 303 444 300 454 q 302 424 307 433 q 287 410 297 414 q 267 411 276 407 q 157 399 217 435 q 81 269 85 356 q 110 160 78 224 q 204 3 142 97 q 247 -79 231 -37 q 271 -49 258 -65 q 581 315 310 0 q 599 325 588 324 m 167 -408 q 221 -204 228 -315 q 127 -353 163 -287 q 84 -447 92 -418 q 79 -486 76 -475 q 117 -465 92 -485 q 167 -408 142 -444 z "},"t":{"ha":185,"x_min":-381,"x_max":1181,"o":"m 1172 819 q 1178 800 1179 811 q 1167 782 1176 789 q 1135 783 1150 771 q 199 788 1068 807 q 15 -35 108 408 q -119 -769 -96 -569 q -114 -771 -117 -769 q -99 -784 -103 -774 q -99 -804 -94 -794 q -110 -837 -106 -826 q -125 -858 -115 -847 q -146 -868 -135 -868 q -156 -867 -150 -868 q -177 -837 -174 -861 q -174 -774 -181 -814 q -149 -606 -168 -715 q -44 -64 -114 -397 q 143 786 49 386 q -92 781 49 785 q -353 775 -314 775 q -372 783 -364 775 q -379 801 -379 790 q -376 815 -379 808 q -366 824 -372 821 q -353 828 -360 828 q -93 835 -314 828 q 157 840 44 838 q 236 1151 201 1024 q 249 1168 239 1163 q 269 1171 258 1174 q 285 1158 279 1168 q 288 1138 290 1149 q 211 842 254 1014 q 840 850 628 853 q 1108 841 1053 847 q 1172 819 1163 835 z "},"u":{"ha":497,"x_min":-21,"x_max":569,"o":"m 533 303 q 539 305 533 303 q 553 300 544 306 q 565 283 563 294 q 563 264 568 272 q 526 208 546 238 q 469 126 507 178 q 396 37 431 75 q 321 -31 361 -1 q 251 -60 281 -60 q 232 -56 240 -60 q 194 157 165 -31 q 111 63 149 94 q 17 51 57 17 q -17 160 -21 82 q 28 310 -14 238 q 44 322 33 319 q 65 319 56 325 q 78 303 75 314 q 75 283 81 293 q 42 201 51 244 q 37 130 33 158 q 50 93 40 101 q 76 103 57 86 q 167 213 113 133 q 181 231 176 225 q 193 247 186 238 q 204 258 200 256 q 214 265 208 261 q 225 267 219 268 q 238 264 231 267 q 257 233 256 257 q 250 169 258 208 q 238 53 235 93 q 244 3 242 13 q 251 -6 247 -6 q 266 -3 256 -8 q 291 13 276 1 q 324 41 306 24 q 365 83 342 58 q 411 138 388 108 q 463 208 435 168 q 517 292 490 247 q 533 303 522 301 z "},"v":{"ha":656,"x_min":-97,"x_max":708,"o":"m 678 309 q 684 309 678 309 q 698 303 689 310 q 708 285 707 296 q 701 265 708 274 q 581 177 649 204 q 451 167 513 150 q 342 254 381 185 q 236 17 307 133 q 140 -115 189 -62 q 53 -179 92 -167 q 26 -183 39 -183 q -15 -167 1 -183 q 65 397 -96 -85 q 78 412 68 407 q 99 413 89 417 q 115 400 110 410 q 115 379 119 390 q 50 160 75 257 q 17 13 25 64 q 11 -72 10 -37 q 15 -116 13 -107 q 22 -128 18 -125 q 36 -128 26 -132 q 133 -40 75 -115 q 243 145 192 35 q 308 354 294 256 q 317 370 310 364 q 335 378 325 376 q 361 356 357 378 q 465 218 383 239 q 565 228 511 206 q 660 300 618 250 q 678 309 668 308 z "},"w":{"ha":790,"x_min":-26,"x_max":860,"o":"m 832 321 q 838 321 832 321 q 851 313 843 321 q 859 294 858 306 q 851 275 860 283 q 719 182 786 208 q 594 172 651 156 q 493 261 529 192 q 446 113 472 183 q 376 -25 406 10 q 321 -61 347 -60 q 251 33 271 -62 q 244 89 247 57 q 118 -79 160 -40 q 57 -110 86 -110 q 26 -100 40 -110 q -16 77 -26 -67 q 61 408 -6 221 q 75 423 65 418 q 95 424 85 428 q 110 410 106 421 q 111 390 115 400 q 48 157 65 263 q 35 3 31 51 q 56 -56 40 -46 q 82 -40 61 -60 q 244 188 125 0 q 274 199 254 204 q 293 172 293 193 q 304 43 293 100 q 321 -7 311 7 q 397 137 349 11 q 460 365 446 263 q 469 381 461 375 q 486 388 476 388 q 513 367 508 389 q 610 224 536 246 q 706 235 651 211 q 814 313 760 258 q 832 321 821 321 z "},"x":{"ha":375,"x_min":-124,"x_max":360,"o":"m 338 438 q 343 436 338 438 q 354 426 349 435 q 357 406 360 417 q 344 389 354 394 q 132 171 251 332 q 186 75 158 114 q 238 28 214 36 q 269 46 254 22 q 286 58 275 56 q 306 53 297 60 q 317 36 315 47 q 314 17 319 25 q 244 -26 285 -26 q 222 -24 233 -26 q 97 121 161 -3 q -71 -156 14 3 q -94 -169 -79 -169 q -107 -165 -101 -169 q -120 -150 -117 -161 q -118 -129 -124 -139 q 71 178 -22 47 q 15 379 13 311 q 24 398 15 390 q 43 405 32 406 q 62 396 54 404 q 69 376 69 388 q 107 228 67 332 q 317 435 221 378 q 338 438 326 440 z "},"y":{"ha":615,"x_min":-257,"x_max":686,"o":"m 663 317 q 668 316 663 317 q 680 306 674 315 q 683 286 686 297 q 672 269 681 275 q 269 -49 426 110 q 90 -844 188 -539 q -133 -1235 -25 -1204 q -154 -1237 -143 -1237 q -210 -1210 -186 -1237 q -252 -1044 -249 -1160 q -216 -772 -256 -929 q -101 -469 -176 -615 q 221 -22 31 -218 q 263 251 242 108 q 182 142 219 186 q 65 100 121 67 q 17 216 19 128 q 57 408 14 304 q 72 422 61 418 q 92 422 82 426 q 106 408 101 418 q 107 388 111 399 q 70 222 69 286 q 93 146 71 158 q 140 175 108 136 q 283 386 210 258 q 315 398 294 406 q 333 369 336 390 q 285 40 310 196 q 643 314 428 174 q 663 317 651 319 m 39 -829 q 204 -119 128 -551 q -54 -494 54 -286 q -149 -727 -114 -608 q -193 -935 -185 -846 q -194 -1087 -201 -1024 q -168 -1175 -187 -1151 q -149 -1183 -158 -1186 q -133 -1176 -142 -1182 q -106 -1148 -125 -1171 q -67 -1090 -86 -1125 q -18 -986 -47 -1054 q 39 -829 11 -918 z "},"z":{"ha":772,"x_min":-276,"x_max":850,"o":"m 825 320 q 831 320 825 320 q 843 311 836 319 q 849 292 850 303 q 840 274 849 281 q 513 -19 657 117 q 335 -556 471 -276 q 91 -882 236 -756 q -158 -1008 -54 -1008 q -161 -1008 -160 -1008 q -247 -957 -225 -1007 q -213 -767 -276 -892 q -4 -475 -150 -643 q 461 7 213 -228 q 447 231 488 176 q 400 247 431 253 q 256 188 332 238 q 241 179 246 182 q 228 173 236 176 q 213 171 219 169 q 200 178 207 172 q 190 190 193 185 q 191 210 188 196 q 200 237 194 224 q 221 283 206 250 q 246 343 236 319 q 281 433 268 393 q 298 495 294 474 q 301 532 301 517 q 299 551 301 547 q 297 556 297 554 q 282 553 293 557 q 178 463 238 536 q 92 300 119 389 q 79 284 89 289 q 58 283 69 279 q 42 296 47 286 q 40 317 38 306 q 144 503 71 411 q 281 608 217 596 q 339 589 318 615 q 294 322 385 531 q 269 263 285 299 q 268 260 268 261 q 267 257 267 258 q 392 300 328 292 q 490 261 456 310 q 522 64 533 204 q 806 314 649 179 q 825 320 814 321 m 286 -532 q 444 -82 396 -308 q 36 -511 229 -289 q -161 -783 -106 -674 q -199 -935 -217 -893 q -160 -954 -190 -954 q -67 -928 -122 -956 q 49 -849 -12 -900 q 174 -715 110 -799 q 286 -532 238 -632 z "},"{":{"ha":514,"x_min":67,"x_max":582,"o":"m 556 1049 q 574 1039 567 1047 q 581 1019 582 1031 q 571 1001 579 1008 q 551 994 563 994 q 426 967 460 1001 q 400 690 374 911 q 348 424 414 571 q 186 189 282 276 q 185 147 185 181 q 171 -3 182 56 q 157 -76 167 -26 q 124 -294 125 -239 q 139 -347 121 -336 q 226 -333 164 -364 q 247 -331 236 -328 q 262 -344 257 -335 q 263 -365 267 -354 q 250 -381 260 -375 q 160 -406 199 -406 q 111 -393 132 -406 q 69 -293 67 -364 q 104 -67 72 -233 q 109 -41 107 -51 q 114 -17 111 -31 q 118 7 117 -4 q 131 149 128 61 q 135 201 132 186 q 147 225 138 217 q 297 439 233 301 q 347 685 360 576 q 342 890 332 814 q 388 1004 351 965 q 556 1049 439 1057 z "},"|":{"ha":433,"x_min":67,"x_max":463,"o":"m 420 923 q 425 925 420 923 q 441 924 431 928 q 456 911 451 921 q 458 892 461 901 q 246 183 357 575 q 122 -235 169 -85 q 96 -253 115 -253 q 88 -251 92 -253 q 72 -238 78 -249 q 71 -218 67 -228 q 194 197 118 -69 q 407 907 306 590 q 420 923 410 918 z "},"}":{"ha":676,"x_min":-72,"x_max":611,"o":"m 421 529 q 374 433 376 443 q 376 388 371 422 q 379 319 382 344 q 341 140 372 257 q 264 -82 310 22 q 122 -310 199 -232 q -37 -387 46 -387 q -46 -387 -42 -387 q -64 -379 -57 -387 q -71 -360 -71 -371 q -62 -341 -71 -349 q -43 -335 -54 -333 q -37 -335 -40 -335 q 76 -281 19 -335 q 174 -147 132 -226 q 249 26 215 -67 q 302 197 283 119 q 326 325 321 275 q 324 381 328 343 q 322 446 317 425 q 374 554 325 460 q 510 839 471 742 q 547 952 538 907 q 553 1006 556 997 q 549 1018 551 1015 q 540 1020 546 1019 q 503 1010 533 1021 q 428 969 472 999 q 407 966 418 964 q 390 978 396 968 q 387 998 385 988 q 399 1014 389 1008 q 585 1057 535 1103 q 605 1019 600 1043 q 603 961 610 996 q 584 885 597 926 q 546 786 571 843 q 492 669 521 729 q 421 529 463 608 z "},"":{"ha":426,"x_min":0,"x_max":0,"o":""},"":{"ha":407,"x_min":67,"x_max":340,"o":"m 283 400 q 295 392 290 397 q 302 381 300 388 q 303 367 304 374 q 239 90 276 261 q 122 -389 181 -183 q 96 -408 117 -408 q 89 -407 93 -408 q 73 -394 78 -404 q 71 -374 68 -385 q 188 101 129 -169 q 251 381 225 274 q 263 397 253 390 q 283 400 272 403 m 318 525 q 338 512 335 524 q 332 488 340 500 q 311 471 324 475 q 274 486 281 461 q 293 522 267 511 q 318 525 303 526 z "},"":{"ha":636,"x_min":65,"x_max":568,"o":"m 542 30 q 547 30 542 30 q 560 20 553 29 q 566 1 567 11 q 557 -18 565 -10 q 365 -83 479 -83 q 255 -65 307 -83 q 171 -12 203 -46 q 153 1 163 -4 q 128 -11 140 -8 q 83 0 103 -17 q 71 35 65 14 q 101 64 75 57 q 140 64 119 69 q 214 206 178 111 q 239 269 225 232 q 225 269 231 269 q 143 289 183 269 q 130 305 133 294 q 131 325 126 315 q 147 338 136 335 q 168 338 157 342 q 260 326 210 315 q 281 386 271 360 q 385 647 350 579 q 458 715 419 715 q 513 665 493 715 q 511 645 515 656 q 497 631 507 635 q 476 631 486 626 q 463 646 465 636 q 456 658 460 654 q 332 368 426 632 q 328 360 331 365 q 325 350 326 354 q 361 365 347 360 q 396 374 375 369 q 436 377 417 379 q 475 367 456 375 q 489 351 485 361 q 488 331 493 342 q 473 317 483 321 q 453 318 463 313 q 433 323 443 322 q 415 323 424 324 q 392 319 406 322 q 369 311 379 315 q 343 300 360 307 q 300 283 317 289 q 264 186 279 226 q 190 42 228 92 q 208 25 200 33 q 292 -20 238 -6 q 412 -25 347 -35 q 522 24 476 -15 q 542 30 531 31 z "},"":{"ha":867,"x_min":64,"x_max":810,"o":"m 768 560 q 793 363 808 478 q 713 147 778 249 q 601 26 665 76 q 457 -51 536 -25 q 292 -78 378 -78 q 260 -78 275 -78 q 115 -17 164 -72 q 69 133 65 39 q 103 272 74 197 q 185 418 133 347 q 300 547 236 489 q 444 637 364 604 q 603 665 525 669 q 768 560 717 660 m 676 172 q 749 365 735 263 q 728 539 764 468 q 601 622 689 617 q 586 622 593 622 q 413 572 500 622 q 263 448 326 522 q 159 288 200 374 q 114 131 118 203 q 117 76 113 101 q 138 25 122 50 q 185 -15 153 0 q 263 -33 217 -31 q 417 -19 346 -37 q 539 35 489 0 q 620 102 589 69 q 676 172 651 135 m 492 197 q 523 194 508 211 q 519 163 538 176 q 376 90 433 90 q 338 103 354 90 q 308 158 313 119 q 318 246 303 196 q 394 389 343 318 q 493 458 453 467 q 522 376 532 450 q 514 361 521 367 q 498 357 507 356 q 483 365 489 358 q 479 382 478 372 q 479 414 482 403 q 418 346 457 401 q 360 232 379 290 q 350 169 349 192 q 363 139 351 146 q 410 142 376 129 q 492 197 443 156 z "},"":{"ha":0,"x_min":0,"x_max":0,"o":""},"":{"ha":579,"x_min":68,"x_max":510,"o":"m 483 432 q 501 424 493 432 q 510 404 510 415 q 501 385 510 393 q 483 378 493 378 q 363 374 444 378 q 339 317 351 346 q 314 257 322 276 q 301 231 306 238 q 292 220 297 224 q 278 217 288 217 q 259 224 267 217 q 251 243 251 232 q 254 256 251 250 q 289 338 257 261 q 297 356 292 344 q 304 371 301 367 q 257 368 282 369 q 197 365 215 367 q 196 365 197 365 q 178 373 186 365 q 169 392 171 381 q 177 410 169 403 q 196 419 185 418 q 254 422 207 419 q 326 426 303 425 q 374 535 369 528 q 391 547 381 544 q 411 544 401 550 q 424 528 421 539 q 421 508 426 518 q 386 429 417 501 q 483 432 450 432 m 317 129 q 388 129 383 129 q 396 128 392 129 q 403 124 400 126 q 409 119 407 122 q 413 112 411 115 q 415 103 415 108 q 408 85 415 93 q 389 75 400 76 q 317 75 383 75 q 99 75 117 76 q 96 74 97 74 q 78 81 86 74 q 69 97 71 88 q 75 117 68 108 q 93 128 82 126 q 317 129 114 131 z "},"":{"ha":492,"x_min":43,"x_max":425,"o":"m 288 129 q 139 -215 169 -115 q 124 -285 128 -256 q 124 -324 121 -314 q 129 -336 126 -333 q 142 -336 133 -337 q 191 -308 151 -335 q 285 -225 231 -281 q 304 -217 293 -217 q 323 -224 315 -217 q 331 -243 331 -232 q 324 -261 331 -254 q 133 -390 199 -390 q 103 -382 117 -390 q 88 -200 43 -347 q 240 153 119 -97 q 335 375 332 344 q 344 394 336 386 q 364 400 353 401 q 376 396 371 400 q 385 385 382 392 q 388 372 389 379 q 364 293 386 344 q 288 129 342 242 m 401 525 q 422 512 418 524 q 417 488 425 500 q 396 471 408 475 q 358 485 365 461 q 376 522 351 510 q 401 525 389 526 z "},"":{"ha":1503,"x_min":65,"x_max":1438,"o":"m 1392 285 q 1402 267 1400 278 q 1397 247 1404 256 q 1376 236 1390 236 q 1365 239 1369 236 q 1142 251 1340 244 q 1033 -229 1075 -32 q 949 -732 949 -622 q 961 -712 954 -724 q 978 -700 967 -703 q 998 -703 989 -697 q 1010 -719 1007 -708 q 1007 -739 1013 -729 q 938 -807 967 -807 q 924 -804 931 -807 q 901 -774 907 -797 q 898 -687 894 -751 q 922 -508 901 -622 q 984 -206 943 -394 q 1088 253 1025 -18 q 753 261 982 256 q 743 263 750 261 q 419 -293 535 -136 q 358 -357 389 -335 q 301 -382 328 -379 q 257 -381 275 -385 q 222 -368 239 -378 q 108 -199 150 -326 q 69 83 65 -71 q 124 353 74 238 q 306 543 186 494 q 589 542 426 592 q 605 528 600 538 q 606 508 610 518 q 593 492 603 497 q 572 490 583 488 q 467 511 518 507 q 359 504 415 515 q 254 449 303 493 q 172 332 206 406 q 126 138 135 246 q 132 -63 117 29 q 178 -227 147 -156 q 249 -322 210 -299 q 376 -261 307 -356 q 685 264 488 -112 q 236 281 272 274 q 219 292 225 283 q 216 313 214 301 q 227 330 218 324 q 247 333 236 336 q 711 317 278 326 q 897 678 774 436 q 1029 939 978 839 q 1130 1129 1081 1039 q 1208 1267 1179 1219 q 1264 1348 1238 1314 q 1308 1390 1290 1382 q 1342 1393 1325 1399 q 1371 1356 1365 1385 q 1371 1275 1376 1326 q 1322 1006 1363 1185 q 1238 647 1306 926 q 1154 304 1183 425 q 1392 285 1375 296 m 771 315 q 1100 306 983 310 q 1186 660 1139 468 q 1271 1018 1253 939 q 1319 1332 1325 1263 q 1258 1245 1297 1310 q 1158 1067 1218 1181 q 1057 874 1097 953 q 944 654 1017 796 q 771 315 831 428 m 1244 1514 q 1232 1543 1217 1517 q 1265 1572 1244 1565 q 1300 1558 1297 1581 q 1276 1519 1304 1533 q 1244 1514 1263 1513 m 1397 1572 q 1432 1558 1429 1581 q 1408 1519 1436 1533 q 1378 1514 1394 1513 q 1364 1543 1349 1517 q 1397 1572 1376 1565 z "},"":{"ha":1276,"x_min":28,"x_max":1201,"o":"m 1018 1229 q 1126 1055 1083 1167 q 1185 797 1169 943 q 1176 463 1200 650 q 1085 82 1151 275 q 964 -205 1031 -76 q 829 -421 897 -333 q 688 -568 761 -508 q 546 -656 614 -628 q 414 -683 478 -683 q 333 -671 371 -683 q 176 -551 240 -642 q 88 -321 113 -461 q 160 468 28 -8 q 204 607 179 539 q 259 744 229 675 q 324 872 289 813 q 399 982 360 932 q 484 1068 439 1032 q 575 1119 529 1104 q 624 1129 600 1128 q 792 1279 701 1243 q 1018 1229 913 1328 m 1035 99 q 1122 463 1097 283 q 1132 781 1146 642 q 1079 1027 1118 921 q 981 1190 1040 1133 q 811 1229 901 1265 q 688 1125 747 1204 q 782 1079 736 1114 q 792 1061 790 1072 q 786 1042 793 1050 q 769 1032 779 1033 q 749 1036 758 1031 q 654 1076 701 1074 q 558 877 603 996 q 476 595 514 758 q 410 213 438 432 q 372 -265 383 -7 q 364 -284 372 -276 q 344 -291 356 -292 q 326 -283 333 -290 q 319 -264 318 -275 q 408 530 339 189 q 585 1067 476 871 q 379 860 481 1026 q 211 454 278 694 q 137 97 158 263 q 124 -190 115 -69 q 163 -403 132 -311 q 240 -549 193 -496 q 349 -619 288 -601 q 513 -610 424 -643 q 693 -492 601 -576 q 875 -254 785 -407 q 1035 99 965 -101 m 735 1461 q 722 1490 706 1463 q 756 1518 733 1511 q 790 1504 786 1528 q 767 1467 794 1481 q 735 1461 753 1460 m 867 1461 q 854 1490 839 1463 q 886 1518 867 1511 q 922 1504 918 1528 q 899 1467 926 1481 q 867 1461 885 1460 z "},"":{"ha":436,"x_min":68,"x_max":368,"o":"m 343 453 q 349 452 343 453 q 360 442 354 451 q 365 422 367 433 q 356 404 364 411 q 256 322 322 379 q 288 268 268 300 q 321 204 321 213 q 313 185 321 193 q 293 178 304 178 q 269 193 278 178 q 242 242 268 196 q 214 288 217 282 q 126 214 182 260 l 114 203 q 96 196 106 196 q 76 206 83 196 q 69 225 68 214 q 79 243 71 236 l 92 254 q 186 335 153 306 q 140 415 143 408 q 140 436 136 426 q 155 450 144 446 q 175 450 165 454 q 189 436 185 446 q 228 369 193 429 q 322 447 290 421 q 343 453 332 454 z "},"":{"ha":1217,"x_min":42,"x_max":1250,"o":"m 1228 1315 q 1247 1292 1244 1310 q 1244 1256 1250 1274 q 1228 1174 1239 1229 q 1164 894 1213 1106 q 1077 511 1110 656 q 996 135 1044 367 q 918 -274 947 -97 q 879 -572 889 -451 q 878 -640 876 -610 q 883 -692 879 -669 q 892 -729 886 -714 q 903 -752 899 -744 q 913 -760 908 -760 q 928 -753 918 -761 q 956 -715 938 -746 q 990 -636 974 -685 q 999 -624 993 -629 q 1010 -618 1004 -619 q 1025 -619 1017 -617 q 1040 -633 1035 -624 q 1040 -654 1044 -643 q 915 -814 985 -814 q 901 -812 908 -814 q 838 -737 858 -803 q 826 -568 818 -672 q 1076 753 853 -229 q 742 -43 914 274 q 519 -377 626 -256 q 317 -522 411 -499 q 167 -478 228 -543 q 76 75 43 -346 q 289 1069 110 496 q 296 1081 290 1076 q 308 1088 301 1086 q 322 1086 315 1089 q 338 1074 333 1083 q 340 1053 343 1064 q 190 483 244 747 q 126 35 135 218 q 137 -269 117 -147 q 206 -442 157 -390 q 304 -469 246 -485 q 444 -379 367 -454 q 611 -160 521 -304 q 794 181 701 -17 q 987 659 886 379 q 1181 1267 1088 939 q 1181 1269 1181 1268 q 1192 1297 1188 1288 q 1206 1313 1196 1306 q 1228 1315 1215 1319 m 671 1374 q 658 1403 643 1375 q 692 1432 671 1425 q 726 1418 724 1442 q 703 1379 731 1393 q 671 1374 689 1372 m 804 1374 q 790 1403 775 1375 q 824 1432 803 1425 q 860 1418 856 1442 q 835 1379 863 1393 q 804 1374 821 1372 z "},"":{"ha":1028,"x_min":67,"x_max":990,"o":"m 917 422 q 936 196 989 349 q 847 31 907 114 q 708 -124 788 -53 q 524 -244 628 -194 q 315 -307 421 -294 q 296 -302 304 -308 q 286 -285 288 -296 q 288 -271 285 -278 q 296 -260 290 -264 q 308 -254 301 -256 q 515 -190 415 -240 q 688 -69 615 -139 q 811 73 760 0 q 886 214 863 146 q 879 385 928 335 q 665 392 824 442 q 517 338 582 364 q 422 263 467 288 q 358 240 378 238 q 331 268 332 243 q 486 382 325 313 q 719 785 632 528 q 739 953 747 879 q 696 1064 731 1026 q 624 1086 664 1097 q 588 1069 607 1082 q 533 1016 568 1057 q 464 913 497 975 q 390 737 431 851 q 314 474 349 622 q 188 -107 242 164 q 124 -479 133 -378 q 136 -482 131 -479 q 149 -498 146 -487 q 147 -518 153 -508 q 103 -562 126 -562 q 93 -560 99 -562 q 70 -526 74 -553 q 76 -428 67 -500 q 118 -179 88 -337 q 263 485 176 122 q 338 750 297 633 q 415 934 379 867 q 490 1048 451 1001 q 556 1113 528 1094 q 610 1138 583 1131 q 735 1100 682 1157 q 792 956 782 1049 q 769 768 801 863 q 593 422 700 564 q 650 442 622 433 q 917 422 839 503 z "},"":{"ha":517,"x_min":-37,"x_max":599,"o":"m 560 280 q 566 282 560 280 q 581 278 571 283 q 595 263 592 274 q 593 243 599 253 q 329 -62 444 -62 q 313 -61 321 -62 q 197 189 219 -43 q 76 39 129 96 q -4 4 31 -11 q -36 76 -37 17 q -12 197 -35 126 q 53 331 10 267 q 146 413 96 396 q 281 364 218 439 q 287 344 288 356 q 278 326 286 333 q 258 320 269 319 q 240 329 247 321 q 142 351 192 388 q 48 206 86 311 q 18 57 10 101 q 38 75 26 64 q 168 240 90 132 q 197 279 189 269 q 226 289 208 294 q 246 265 244 283 q 257 144 249 196 q 274 65 265 92 q 293 19 282 38 q 310 -3 304 1 q 324 -10 317 -8 q 359 1 338 -12 q 408 44 381 14 q 472 132 436 75 q 546 267 508 189 q 560 280 550 276 m 100 542 q 86 572 71 544 q 119 600 99 593 q 156 586 151 610 q 132 549 160 563 q 100 542 117 542 m 232 542 q 219 572 204 544 q 251 600 232 593 q 288 586 283 610 q 264 549 292 561 q 232 542 250 542 z "},"":{"ha":444,"x_min":-29,"x_max":515,"o":"m 483 258 q 489 259 483 258 q 503 253 494 260 q 513 235 511 246 q 507 215 514 225 q 371 99 450 142 q 222 74 292 57 q 170 1 203 29 q 97 -26 138 -26 q 94 -26 96 -26 q 29 -1 57 -26 q -11 67 1 24 q -5 197 -29 135 q 65 286 19 258 q 88 289 76 293 q 124 336 100 319 q 172 349 147 353 q 197 338 185 346 q 220 309 208 329 q 238 249 232 289 q 240 154 243 210 q 238 125 239 140 q 354 151 290 114 q 465 249 418 189 q 483 258 472 257 m 96 26 q 138 44 115 26 q 174 94 160 63 q 103 155 126 119 q 78 229 81 190 q 40 158 50 203 q 42 81 31 114 q 96 26 56 28 m 188 157 q 185 241 190 207 q 174 285 179 275 q 163 296 168 296 q 149 287 157 296 q 135 263 140 278 q 138 203 126 233 q 186 149 150 172 q 188 157 186 153 m 46 561 q 33 590 17 563 q 65 618 46 611 q 101 604 97 628 q 78 567 106 581 q 46 561 64 560 m 178 561 q 165 590 150 563 q 199 618 178 611 q 233 604 231 628 q 210 567 238 581 q 178 561 194 560 z "},"":{"ha":485,"x_min":68,"x_max":415,"o":"m 279 404 q 267 435 250 406 q 300 463 279 456 q 335 448 332 472 q 311 410 338 424 q 279 404 297 403 m 188 192 q 224 179 219 201 q 200 140 226 154 q 168 135 185 135 q 154 164 139 138 q 188 192 167 186 m 388 322 q 402 319 396 322 q 412 309 408 315 q 415 296 415 303 q 407 277 415 285 q 388 269 399 269 l 369 269 q 99 268 122 271 q 96 268 97 268 q 78 275 86 268 q 69 292 71 282 q 75 311 68 303 q 93 321 82 319 q 371 322 119 324 l 388 322 z "},"":{"ha":497,"x_min":-22,"x_max":568,"o":"m 533 267 q 539 268 533 267 q 553 264 544 269 q 565 247 563 258 q 563 228 568 236 q 512 151 540 192 q 435 47 483 110 q 337 -56 386 -15 q 251 -96 288 -96 q 232 -92 240 -96 q 193 121 165 -67 q 111 26 149 58 q 15 15 57 -19 q -17 124 -21 46 q 28 274 -14 201 q 44 286 33 283 q 64 283 54 289 q 76 267 74 278 q 74 247 79 257 q 42 165 51 208 q 36 94 33 122 q 50 56 39 65 q 76 67 57 50 q 167 175 111 97 q 181 195 176 189 q 192 210 185 201 q 203 222 199 218 q 213 228 207 225 q 225 231 219 232 q 236 228 231 231 q 256 197 254 221 q 250 133 258 172 q 238 17 235 57 q 244 -33 240 -24 q 250 -42 247 -42 q 299 -18 263 -47 q 396 84 336 11 q 517 256 456 157 q 533 267 522 265 m 85 503 q 72 532 57 504 q 106 560 85 553 q 140 546 138 569 q 117 508 144 522 q 85 503 103 501 m 218 503 q 204 532 189 504 q 238 560 217 553 q 272 546 269 569 q 249 508 276 522 q 218 503 235 501 z "},"":{"ha":640,"x_min":69,"x_max":639,"o":"m 617 714 q 632 701 626 710 q 635 681 638 692 q 622 664 632 669 q 601 663 613 658 q 519 640 571 671 q 412 551 468 611 q 314 419 356 492 q 421 421 378 421 q 439 413 431 421 q 447 394 447 404 q 439 375 447 383 q 421 367 431 367 q 285 365 372 367 q 251 272 263 317 q 246 250 249 261 q 374 257 353 251 q 408 250 393 269 q 413 231 414 242 q 403 213 411 219 q 238 196 382 199 q 264 56 232 117 q 328 7 281 21 q 431 17 385 -10 q 451 19 440 22 q 468 6 463 15 q 470 -15 474 -4 q 457 -31 467 -25 q 369 -53 419 -53 q 313 -43 340 -53 q 217 31 243 -24 q 185 196 179 103 q 164 196 175 196 q 106 196 138 196 l 96 196 q 77 203 85 196 q 69 222 69 211 q 77 241 69 233 q 96 249 85 249 l 107 249 q 192 249 153 249 q 200 285 194 267 q 226 364 210 322 q 132 363 171 363 q 113 370 121 363 q 104 389 104 378 q 113 408 104 400 q 132 415 121 415 q 251 418 176 415 q 364 579 297 507 q 493 688 431 651 q 617 714 564 728 z "},"":{"ha":874,"x_min":68,"x_max":804,"o":"m 778 392 q 791 388 785 392 q 801 378 797 383 q 804 364 804 372 q 797 345 804 353 q 778 338 789 338 q 593 336 717 338 q 510 335 542 335 q 413 235 464 288 q 625 214 535 229 q 642 203 636 213 q 647 183 649 194 q 638 167 646 174 q 621 161 631 161 q 617 161 619 161 q 363 183 513 178 q 114 -61 169 -12 q 96 -67 106 -67 q 76 -58 83 -67 q 69 -39 68 -50 q 79 -21 71 -28 q 289 185 126 21 q 138 186 232 186 l 126 186 q 108 194 115 186 q 100 213 100 201 q 108 231 100 224 q 126 239 115 239 l 138 239 l 149 239 q 340 238 268 239 q 435 335 390 288 q 422 333 432 333 q 404 333 411 333 q 221 338 300 333 q 208 342 214 338 q 198 352 201 346 q 196 365 194 358 q 204 384 196 376 q 224 392 213 392 q 486 388 326 386 q 639 557 624 531 q 656 568 646 565 q 676 565 667 571 q 688 548 686 558 q 685 528 690 538 q 561 389 668 501 q 592 389 583 389 q 778 392 717 392 z "},"":{"ha":586,"x_min":68,"x_max":519,"o":"m 496 537 q 501 536 496 537 q 513 526 507 535 q 517 506 519 517 q 506 488 514 494 q 257 339 360 390 q 219 307 219 319 q 356 214 219 283 q 435 172 410 186 q 447 156 444 167 q 444 136 450 146 q 421 122 438 122 q 408 126 414 122 q 331 167 385 140 q 278 194 296 185 q 235 219 261 203 q 197 247 210 235 q 175 274 185 258 q 165 307 165 290 q 232 386 165 351 q 475 532 333 438 q 496 537 485 539 m 421 24 q 440 16 432 24 q 447 -3 447 8 q 440 -22 447 -14 q 422 -31 433 -29 q 335 -31 415 -31 q 99 -31 117 -29 q 96 -32 97 -32 q 78 -24 86 -32 q 69 -7 71 -17 q 76 13 68 4 q 94 22 83 21 q 335 24 115 24 q 419 24 414 24 q 421 24 421 24 z "},"":{"ha":589,"x_min":68,"x_max":521,"o":"m 351 472 q 442 425 411 443 q 496 385 474 407 q 519 340 518 363 q 486 286 521 308 q 171 114 310 181 q 160 111 165 111 q 135 126 143 111 q 134 147 131 136 q 149 163 138 157 q 458 332 285 228 q 465 339 463 336 q 328 425 458 360 q 219 485 246 465 q 209 501 211 490 q 214 522 207 513 q 232 532 221 531 q 251 528 243 533 q 351 472 274 511 m 421 24 q 440 16 432 24 q 449 -3 447 8 q 441 -22 449 -14 q 422 -31 433 -29 q 335 -31 415 -31 q 99 -31 118 -29 q 96 -32 97 -32 q 78 -24 86 -32 q 69 -7 71 -17 q 76 13 68 4 q 94 22 83 21 q 335 24 115 24 q 421 24 415 24 z "},"":{"ha":571,"x_min":-381,"x_max":1311,"o":"m 1304 807 q 1310 786 1311 797 q 1300 769 1308 775 q 1267 769 1283 757 q 567 779 1210 789 q 369 -112 465 358 q 254 -751 274 -582 q 261 -753 257 -751 q 276 -767 271 -757 q 276 -787 281 -776 q 263 -818 268 -807 q 249 -840 258 -829 q 228 -850 239 -850 q 218 -849 224 -850 q 197 -819 200 -843 q 200 -757 193 -796 q 225 -587 206 -697 q 329 -46 260 -379 q 497 719 411 351 q 194 -36 311 233 q 115 -208 150 -137 q 58 -317 81 -279 q 18 -375 36 -356 q -11 -398 0 -394 q -35 -397 -22 -401 q -70 -338 -65 -390 q -53 -118 -75 -286 q 129 771 14 350 q -71 767 57 769 q -353 761 -310 761 q -372 769 -364 761 q -379 788 -379 776 q -372 806 -379 799 q -353 814 -364 814 q -72 819 -311 814 q 144 825 38 822 q 226 1090 185 968 q 240 1105 231 1100 q 260 1106 250 1110 q 276 1093 271 1103 q 276 1072 281 1083 q 200 826 238 958 q 482 832 353 829 q 610 1172 543 992 q 624 1187 614 1182 q 643 1188 633 1192 q 658 1175 653 1185 q 661 1156 664 1165 q 579 833 624 1019 q 920 836 783 838 q 1131 834 1057 835 q 1244 827 1206 833 q 1290 817 1282 821 q 1304 807 1299 814 m 164 26 q 463 778 281 301 q 185 772 336 776 q 0 -125 68 349 q -17 -333 -22 -278 q 164 26 38 -268 z "},"":{"ha":868,"x_min":-81,"x_max":1656,"o":"m 1649 881 q 1654 861 1656 872 q 1644 843 1653 850 q 1611 843 1628 829 q 894 853 1554 863 q 710 25 803 471 q 575 -710 599 -510 q 581 -711 578 -710 q 596 -725 592 -715 q 597 -746 600 -735 q 584 -777 589 -767 q 569 -798 579 -787 q 549 -808 560 -808 q 539 -807 544 -808 q 517 -778 521 -801 q 521 -715 514 -754 q 546 -547 526 -656 q 650 -4 581 -337 q 840 853 743 450 q 788 851 814 851 q 239 -168 579 478 q 250 -360 269 -264 q 143 -560 226 -482 q 79 -600 110 -592 q 28 -593 49 -608 q 54 -403 -24 -553 l 92 -333 q 181 -164 150 -221 q 142 -90 165 -126 q 40 81 75 10 q 10 210 6 151 q 39 309 13 264 q 111 382 65 354 q 193 409 150 406 q 271 396 236 413 q 285 381 282 392 q 284 360 289 371 q 269 347 279 350 q 249 349 258 343 q 139 336 199 372 q 63 207 67 293 q 92 95 60 160 q 186 -61 125 31 q 211 -104 200 -82 q 725 850 526 492 q 238 840 542 847 q -53 835 -10 835 l -54 835 q -72 842 -64 835 q -81 861 -81 850 q -73 880 -81 872 q -54 888 -65 888 q 236 893 -10 888 q 756 904 528 900 q 933 1217 850 1074 q 966 1228 944 1238 q 982 1197 988 1219 q 908 907 949 1075 q 1256 910 1117 911 q 1472 908 1396 908 q 1586 901 1547 907 q 1634 891 1625 894 q 1649 881 1643 888 m 149 -471 q 200 -240 218 -365 q 166 -307 189 -264 q 139 -358 143 -350 l 101 -428 q 61 -550 54 -517 q 99 -528 74 -549 q 149 -471 124 -508 m 817 906 q 833 906 819 906 q 853 906 846 906 q 881 1018 867 965 q 817 906 851 967 z "}}}
